<?xml version="1.0" standalone="no"?>
<!DOCTYPE svg PUBLIC "-//W3C//DTD SVG 1.1//EN" "http://www.w3.org/Graphics/SVG/1.1/DTD/svg11.dtd" >
<svg xmlns="http://www.w3.org/2000/svg">
<metadata>
<json>
<![CDATA[
{
	"fontFamily": "icon",
	"designer": "infospica",
	"description": "Font generated by IcoMoon.",
	"majorVersion": 1,
	"minorVersion": 0,
	"version": "Version 1.0",
	"fontId": "icon",
	"psName": "icon",
	"subFamily": "Regular",
	"fullName": "icon"
}
]]>
</json>
</metadata>
<defs>
<font id="icon" horiz-adv-x="1024">
<font-face units-per-em="1024" ascent="960" descent="-64" />
<missing-glyph horiz-adv-x="1024" />
<glyph unicode="&#x20;" horiz-adv-x="512" d="" />
<glyph unicode="&#xe900;" glyph-name="affiliate_list-n" data-tags="affiliate_list-n" d="M844.145-38.331h-664.289c-73.373 0-132.854 59.481-132.854 132.854v0 763.924c0 18.346 14.872 33.219 33.219 33.219v0h664.228c18.346 0 33.219-14.872 33.219-33.219v0-199.332h166.113c18.342 0 33.213-14.867 33.219-33.208v-531.457c-0.041-73.342-59.506-132.782-132.854-132.782v0zM672.276 47.255l35.594 69.489h-71.178zM364.278 271.418c7.336-14.201 21.909-23.741 38.709-23.741 7.477 0 14.513 1.89 20.656 5.218l-0.229-0.114c14.044 7.769 23.396 22.495 23.396 39.405 0 7.57-1.874 14.702-5.184 20.958l0.118-0.244c-7.204 13.837-21.233 23.237-37.503 23.745l-0.067 0.002-12.216 54.272c-6.242-2.301-13.539-4.080-21.097-5.019l-0.489-0.050 12.288-54.354c-14.059-7.762-23.422-22.494-23.422-39.413 0-7.551 1.865-14.666 5.159-20.91l-0.118 0.245zM131.932 455.431c-12.034-8.213-19.831-21.862-19.831-37.333 0-9.076 2.684-17.525 7.301-24.598l-0.106 0.173c7.829-12.185 21.314-20.143 36.658-20.143 8.977 0 17.318 2.724 24.241 7.39l-0.155-0.098c12.026 8.156 19.825 21.761 19.825 37.187 0 0.070 0 0.14 0 0.21v-0.011c-0.056 1.1-0.162 2.116-0.318 3.114l0.021-0.165 68.301 23.276c-2.884 6.095-5.331 13.219-6.979 20.643l-0.128 0.687-68.076-23.183c-7.828 12.188-21.315 20.147-36.661 20.147-8.98 0-17.323-2.726-24.248-7.394l0.154 0.098zM269.978 614.97c-0.267 24.222-19.964 43.755-44.224 43.755-24.426 0-44.227-19.801-44.227-44.227 0-24.338 19.66-44.085 43.965-44.226h0.013c0.066 0 0.144-0.001 0.222-0.001 8.76 0 16.917 2.578 23.756 7.016l-0.17-0.103 29.583-28.457c4.539 6.127 9.506 11.496 14.994 16.281l0.121 0.103-29.635 28.467c3.484 6.166 5.555 13.532 5.601 21.377v0.014zM358.912 563.883c-41.696-0.358-75.358-34.242-75.358-75.988 0-0.206 0.001-0.412 0.002-0.618v0.032c0.691-41.080 34.156-74.117 75.336-74.117 41.612 0 75.346 33.734 75.346 75.346 0 41.605-33.722 75.334-75.325 75.346h-0.001zM481.935 721.026c-3.467 0.999-7.449 1.573-11.565 1.573-19.978 0-36.795-13.531-41.787-31.928l-0.070-0.303c-1.019-3.555-1.605-7.638-1.605-11.858 0-12.123 4.835-23.117 12.683-31.159l-0.009 0.009-39.199-67.092c7.225-3.396 13.445-7.256 19.159-11.733l-0.215 0.162 39.352 67.348c3.467-0.999 7.449-1.573 11.565-1.573 19.978 0 36.795 13.531 41.787 31.928l0.070 0.303c1.036 3.567 1.633 7.665 1.633 11.901 0 19.991-13.273 36.882-31.487 42.341l-0.313 0.081zM598.467 474.734c-3.276 21.307-21.423 37.451-43.364 37.571h-0.013c-18.875-0.131-34.911-12.14-41.016-28.919l-0.097-0.306-54.661 5.478c0-0.42 0.072-0.829 0.072-1.229-0.031-7.504-0.839-14.802-2.347-21.84l0.125 0.694 54.661-5.519c3.251-21.355 21.485-37.529 43.496-37.529 2.383 0 4.722 0.19 7.003 0.555l-0.251-0.033c21.132 3.733 36.979 21.956 36.979 43.88 0 2.542-0.213 5.034-0.622 7.459l0.036-0.262zM707.871 345.566c0.002 0.086 0.004 0.188 0.004 0.29 0 6.396-5.185 11.581-11.581 11.581-0.102 0-0.204-0.001-0.305-0.004h-47.437c-0.086 0.002-0.188 0.004-0.29 0.004-6.396 0-11.581-5.185-11.581-11.581 0-0.102 0.001-0.204 0.004-0.305v0.015-15.258h71.188v15.258zM636.416 306.224v-165.396h71.905v165.396h-71.905zM910.572 592.739h-132.854v-498.217c0-36.687 29.74-66.427 66.427-66.427s66.427 29.74 66.427 66.427v0 0 498.217z" />
<glyph unicode="&#xe901;" glyph-name="settings-n" data-tags="settings-n" d="M872.12 316.321l-24.996-59.3s61.164-128.338 55.9-133.458l-76.8-75.223c-5.181-4.915-138.824 51.968-138.824 51.968l-60.416-24.504s-49.51-133.12-56.986-133.12h-108.585c-7.332 0-60.733 132.649-60.733 132.649l-60.508 24.576s-131.133-59.802-136.284-54.702l-76.913 75.131c-5.059 5.059 53.002 136.059 53.002 136.059l-24.955 59.126s-135.977 48.435-135.977 55.767v106.332c0 7.168 135.649 59.3 135.649 59.3l24.914 59.31s-61.133 128.287-55.818 133.54l76.8 75.244c5.12 4.905 138.957-51.968 138.957-51.968l60.416 24.484s49.377 133.12 56.893 133.12h108.544c7.25 0 60.785-132.721 60.785-132.721l60.416-24.422s130.99 59.73 136.366 54.548l76.8-75.049c5.089-5.069-52.92-135.997-52.92-135.997l24.996-59.31s136.008-48.364 135.967-55.634v-106.26c0-7.158-135.69-59.484-135.69-59.484zM513.423 612.779c-101.093-2.204-182.2-84.675-182.2-186.091 0-102.798 83.334-186.132 186.132-186.132s186.132 83.334 186.132 186.132c0 0.025 0 0.050 0 0.075v-0.004c-1.348 103.027-85.181 186.027-188.401 186.027-0.585 0-1.169-0.003-1.753-0.008l0.089 0.001z" />
<glyph unicode="&#xe902;" glyph-name="upload-n" data-tags="upload-n" d="M805.069-49.391h-586.138c-50.899 0-92.16 41.261-92.16 92.16v0 757.555c0 50.899 41.261 92.16 92.16 92.16v0h483.226l195.072-194.458v-655.258c0-50.899-41.261-92.16-92.16-92.16v0zM304.456 342.289l157.041-4.424v-256.573h101.704v258.785h152.576l-203.489 207.872zM639.181 850.091v-215.654h215.654z" />
<glyph unicode="&#xe903;" glyph-name="download-u" data-tags="download-u" d="M139.531-64.001c-0.225-0.003-0.489-0.005-0.755-0.005-35.030 0-63.468 28.216-63.826 63.161v161.748c0.359 34.978 28.797 63.197 63.827 63.197 0.265 0 0.53-0.002 0.794-0.005h-0.040c0.225 0.003 0.489 0.005 0.755 0.005 35.030 0 63.468-28.216 63.826-63.161v-98.519h615.768v98.486c0 35.667 28.914 64.581 64.581 64.581s64.581-28.914 64.581-64.581v0-161.677c-0.337-34.995-28.784-63.236-63.827-63.236-0.319 0-0.635 0.003-0.952 0.008l0.048-0.001zM492.472 156.849l-226.295 221.526c-4.162 4.044-6.743 9.693-6.743 15.947 0 3.122 0.644 6.094 1.806 8.789l-0.055-0.143c3.624 8.241 11.717 13.894 21.132 13.894 0.055 0 0.111 0 0.166-0.001h106.25v408.51c0.296 27.292 22.488 49.302 49.822 49.302 0.211 0 0.425-0.001 0.635-0.004h145.613c0.168 0.002 0.366 0.004 0.565 0.004 27.334 0 49.527-22.011 49.822-49.274v-408.575h106.257c0.047 0 0.102 0.001 0.159 0.001 9.413 0 17.506-5.651 21.072-13.745l0.057-0.147c1.107-2.552 1.749-5.524 1.749-8.645 0-6.254-2.583-11.904-6.739-15.942l-0.006-0.006-226.295-221.526c-5.035-4.881-11.91-7.889-19.486-7.889s-14.451 3.008-19.494 7.897l0.008-0.008z" />
<glyph unicode="&#xe904;" glyph-name="chat-line" data-tags="chat-line" d="M841.212 140.48h-399.239l-267.051-183.147v183.47c-71.842 4.273-128.495 63.534-128.59 136.049v397.364c0 75.362 61.091 136.453 136.453 136.453v0h658.429c75.362 0 136.453-61.091 136.453-136.453v0-397.353c-0.043-75.33-61.118-136.379-136.453-136.379 0 0 0 0 0 0v0zM732.051 615.835h-436.354v-54.582h436.405zM732.051 498.931h-436.354v-54.582h436.405zM732.051 382.030h-436.354v-54.582h436.405z" />
<glyph unicode="&#xe905;" glyph-name="upload-line" data-tags="upload-line" d="M930.131 802.132c-31.455 31.628-75.004 51.204-123.123 51.204-0.157 0-0.315 0-0.472-0.001h-589.098c-96.525 0-174.773-78.248-174.773-174.773v0-589.122c0.126-96.474 78.299-174.647 174.76-174.773h589.133c96.481 0.111 174.662 78.293 174.773 174.762v589.132c0 0.133 0.001 0.29 0.001 0.448 0 48.12-19.574 91.667-51.195 123.115l-0.009 0.009zM346.739 522.729l145.792 145.792c4.98 4.988 11.864 8.075 19.469 8.075s14.488-3.087 19.468-8.075v0l145.792-145.792c4.983-4.983 8.063-11.866 8.063-19.469 0-15.206-12.327-27.533-27.533-27.533-7.602 0-14.487 3.082-19.469 8.063v0l-98.845 98.928v-293.364c0-15.191-12.315-27.507-27.507-27.507s-27.507 12.315-27.507 27.507v0 293.364l-98.845-98.845c-4.983-4.983-11.866-8.063-19.469-8.063-15.206 0-27.533 12.327-27.533 27.533 0 7.602 3.082 14.487 8.063 19.469v0zM777.108 91.277h-530.214c-15.191 0-27.507 12.315-27.507 27.507s12.315 27.507 27.507 27.507h530.214c15.191 0 27.507-12.315 27.507-27.507s-12.315-27.507-27.507-27.507v0z" />
<glyph unicode="&#xe906;" glyph-name="time-p" data-tags="time-p" d="M115.294 292.006c1.115 218.251 178.298 394.746 396.704 394.746 219.096 0 396.709-177.613 396.709-396.709s-177.61-396.707-396.704-396.709v0c-219.217 0.558-396.711 178.396-396.711 397.689 0 0.345 0 0.691 0.001 1.036v-0.053zM466.236 265.448l231.177-160.772 37.98 55.121-202.509 140.685v192.091h-66.814zM680.688 707.486l32.802 57.043c5.741 9.913 16.299 16.475 28.39 16.475 6.082 0 11.775-1.661 16.653-4.552l-0.151 0.083 56.751-32.969c9.894-5.85 16.426-16.463 16.426-28.601 0-6.055-1.625-11.731-4.463-16.615l0.085 0.158-32.802-57.022zM512.003 726.256c-21.7-0.194-42.821-1.97-63.453-5.221l2.423 0.314v53.326l-41.634 0.313v68.902c0 0.062-0.001 0.135-0.001 0.209 0 16.86 13.65 30.533 30.502 30.567h144.636c16.864-0.024 30.526-13.7 30.526-30.567 0-0.036 0-0.074 0-0.11v0.006-68.902l-41.967-0.313v-53.451c-18.204 2.942-39.324 4.726-60.823 4.926l-0.207 0.002z" />
<glyph unicode="&#xe907;" glyph-name="burger-menu" data-tags="burger-menu" d="M136.274 25.893c-0.008 0-0.024 0-0.038 0-30.808 0-55.779 24.972-55.779 55.779 0 0 0 0 0 0v0c0 30.824 24.988 55.814 55.814 55.814v0h502.107c30.824 0 55.814-24.988 55.814-55.814v0c0-30.808-24.972-55.779-55.779-55.779-0.011 0-0.024 0-0.039 0h0.003zM129.945 306.831c-27.745 1.807-49.568 24.751-49.568 52.798 0 1.050 0.030 2.092 0.089 3.125l-0.008-0.143c-0.055 0.904-0.087 1.958-0.087 3.022 0 28.030 21.804 50.97 49.374 52.784l0.159 0.008h764.167c27.749-1.823 49.568-24.777 49.568-52.83 0-1.050-0.030-2.092-0.089-3.128l0.008 0.143c0.055-0.892 0.087-1.934 0.087-2.985 0-28.050-21.819-51.006-49.409-52.821l-0.159-0.008zM385.676 587.843c-0.008 0-0.024 0-0.038 0-30.808 0-55.779 24.972-55.779 55.779 0 0 0 0 0 0v0c0 30.824 24.988 55.814 55.814 55.814v0h502.107c30.808-0.023 55.779-24.999 55.779-55.814 0-0.024 0-0.052 0-0.075v0.006c-0.039-30.776-24.998-55.704-55.779-55.704 0 0 0 0 0 0v0z" />
<glyph unicode="&#xe908;" glyph-name="close-icon" data-tags="close-icon" d="M628.787 405.353l288.453 286.705c14.953 14.807 24.209 35.341 24.209 58.036s-9.257 43.23-24.201 58.030l-0.008 0.008c-14.98 14.862-35.615 24.047-58.395 24.047s-43.411-9.185-58.398-24.054l0.006 0.006-288.453-286.705-288.453 286.616c-14.986 14.854-35.619 24.029-58.395 24.029s-43.409-9.176-58.399-24.037l0.007 0.007c-14.953-14.807-24.209-35.341-24.209-58.036s9.257-43.23 24.201-58.030l0.008-0.008 288.453-286.705-288.453-286.705c-14.937-14.804-24.186-35.327-24.186-58.014s9.25-43.21 24.181-58.007l0.007-0.007c14.98-14.862 35.615-24.047 58.395-24.047s43.411 9.185 58.398 24.054l-0.006-0.006 288.453 286.841 288.453-286.705c14.98-14.862 35.615-24.047 58.395-24.047s43.411 9.185 58.398 24.054l-0.006-0.006c14.937 14.804 24.186 35.327 24.186 58.014s-9.25 43.21-24.181 58.007l-0.007 0.007z" />
<glyph unicode="&#xe909;" glyph-name="aff" data-tags="aff" d="M977.745 30.919c-0.308-10.186-7.655-18.575-17.331-20.472l-0.135-0.023s-230.039 0-244.542 0c-8.621 0.592-15.462 7.463-16.004 16.045l-0.003 0.051v83.478c2.301 18.855 14.031 34.525 30.262 42.318l0.323 0.14 69.874 23.431 34.931-118.598 5.824 1.466 36.389 118.598s32.131-10.252 64.051-21.961 36.389-49.786 36.389-49.786 0.143-57.404-0.027-74.683zM838.009 202.265c-0.116-0.001-0.256-0.002-0.396-0.002-37.199 0-67.355 30.156-67.355 67.355s30.156 67.355 67.355 67.355c37.199 0 67.354-30.155 67.355-67.353v0c0-0.070 0.001-0.147 0.001-0.225 0-37.020-29.954-67.043-66.945-67.157h-0.009zM647.769 45.697c-2.642-3.9-7.050-6.428-12.045-6.428-3.048 0-5.879 0.939-8.214 2.551l0.050-0.032-104.407 71.122c-3.342-1.173-7.19-1.854-11.201-1.854-4.524 0-8.85 0.863-12.815 2.438l0.236-0.084-104.132-71.132c-2.277-1.574-5.098-2.517-8.139-2.517-4.987 0-9.379 2.529-11.971 6.374l-0.033 0.053-10.572 15.742c-1.563 2.302-2.497 5.142-2.497 8.198 0 5.008 2.505 9.433 6.33 12.088l0.049 0.032 109.813 74.985c1.846 5.825 4.956 10.798 9.026 14.802l0.007 0.007v116.591c0 0.014 0 0.031 0 0.048 0 8.048 6.514 14.574 14.558 14.598h18.933c8.044-0.023 14.558-6.55 14.558-14.598 0-0.017 0-0.034 0-0.051v0.004-115.304c5.204-4.603 9.027-10.654 10.851-17.521l0.054-0.248 108.355-73.84c3.886-2.683 6.399-7.112 6.399-12.125 0-3.064-0.938-5.903-2.537-8.26l0.033 0.053zM632.812 345.731s-230.039 0-244.551 0c-8.621 0.592-15.462 7.463-16.004 16.045l-0.003 0.051v83.466c2.273 18.855 13.984 34.539 30.195 42.356l0.322 0.141 69.874 23.431 34.931-118.598 5.824 1.466 36.389 118.56s32.131-10.252 64.051-21.961 36.389-49.786 36.389-49.786 0.163-57.396 0-74.671c-0.302-10.174-7.628-18.554-17.282-20.471l-0.136-0.023zM510.492 537.543c-0.116-0.001-0.256-0.002-0.396-0.002-37.199 0-67.355 30.156-67.355 67.355s30.156 67.355 67.355 67.355c37.199 0 67.354-30.155 67.355-67.353v0c0-0.058 0-0.131 0-0.198 0-37.020-29.954-67.042-66.945-67.157h-0.009zM306.705 10.425s-230.039 0-244.542 0c-8.621 0.592-15.462 7.463-16.004 16.045l-0.003 0.051v83.478c2.295 18.852 14.018 34.523 30.242 42.318l0.323 0.14 69.874 23.431 34.931-118.598 5.824 1.466 36.389 118.598s32.131-10.252 64.051-21.961 36.409-49.786 36.409-49.786 0.163-57.396 0-74.671c-0.306-10.199-7.671-18.592-17.359-20.484l-0.134-0.023zM184.426 202.237c-0.116-0.001-0.256-0.002-0.396-0.002-37.199 0-67.355 30.156-67.355 67.355s30.156 67.355 67.355 67.355c37.199 0 67.354-30.155 67.355-67.353v0c0-0.058 0-0.131 0-0.198 0-37.020-29.954-67.042-66.945-67.157h-0.009z" />
<glyph unicode="&#xe90a;" glyph-name="assessment" data-tags="assessment" d="M768.747-127.926v468.166c55.452 67.16 95.866 148.795 114.866 238.341l0.649 3.661h2.992v-710.166zM590.976-127.926v321.014c45.013 24.832 83.882 52.826 119.015 84.846l-0.488-0.438v-405.421zM413.184-127.926v255.336c45.383 9.735 85.002 22.532 122.785 38.779l-4.257-1.629v-292.486zM235.394-127.926v241.67c12.024-0.646 24.089-1.094 36.192-1.094 29.026 0.009 57.625 1.798 85.706 5.267l-3.37-0.34v-245.501zM57.603-127.926v275.69c33.719-11.858 73.703-21.701 114.917-27.759l3.611-0.435v-247.496zM64.446 176.449c-3.927 1.226-6.726 4.83-6.726 9.088 0 5.247 4.255 9.502 9.502 9.502 0.826 0 1.629-0.105 2.393-0.304l-0.066 0.014c275.533-42.781 517.653 158.375 560.316 416.801h-126.7l231.56 199.045 231.658-199.142h-106.874c-45.811-288.145-308.734-469.554-587.904-469.554-0.1 0-0.22 0-0.339 0-74.055 0-145.163 12.616-211.292 35.819l4.472-1.367z" />
<glyph unicode="&#xe90b;" glyph-name="doc-search" data-tags="doc-search" d="M894.953-116.929l-77.411 76.197-10.84 10.878c-25.708-17.615-56.558-29.669-89.878-33.73l-0.987-0.099c-7.346-0.95-15.845-1.49-24.469-1.49-0.087 0-0.175 0-0.262 0h0.013c-0.046 0-0.099 0-0.154 0-26.147 0-51.164 4.833-74.207 13.656l1.422-0.478c-77.417 29.557-131.553 102.891-132.294 188.964l-0.001 0.092c0 0.023 0 0.050 0 0.077 0 51.048 19.18 97.614 50.727 132.888l-0.168-0.191c37.911 42.65 92.919 69.386 154.172 69.386 0.113 0 0.226 0 0.338 0h-0.017c0.059 0 0.129 0 0.199 0 19.535 0 38.443-2.688 56.372-7.712l-1.466 0.351q7.749-2.099 15.202-4.785c5.172-1.84 10.233-3.903 15.202-6.184 70.822-32.317 119.238-102.353 119.632-183.742v-0.052c0-0.112 0-0.244 0-0.377 0-42.588-13.394-82.050-36.2-114.398l0.42 0.627 88.326-87.055c6.848-6.736 11.090-16.101 11.090-26.457s-4.242-19.722-11.084-26.453l-0.005-0.005c-6.906-6.789-16.385-10.981-26.844-10.981s-19.938 4.191-26.85 10.987l0.006-0.006zM561.861 136.875c0.625-70.435 57.867-127.291 128.388-127.291 0.274 0 0.546 0.001 0.82 0.003h-0.042c0.041 0 0.091 0 0.141 0 19.952 0 38.855 4.493 55.752 12.521l-0.788-0.338c5.993 2.849 10.973 5.645 15.754 8.724l-0.552-0.333c5.724 3.639 10.687 7.385 15.332 11.486l-0.129-0.112c26.809 23.223 43.667 57.317 43.667 95.346s-16.859 72.124-43.51 95.213l-0.158 0.134c-4.514 3.94-9.475 7.685-14.694 11.066l-0.509 0.309c-4.229 2.746-9.209 5.541-14.367 8.029l-0.835 0.363c-16.134 7.691-35.063 12.184-55.041 12.184-0.022 0-0.044 0-0.066 0h0.004c-0.253 0.002-0.552 0.003-0.85 0.003-70.514 0-127.744-56.877-128.315-127.256v-0.055zM405.142-37.144h-287.301c-0.094-0.001-0.204-0.001-0.315-0.001-29.254 0-52.996 23.6-53.226 52.801v553.128h18.699c1.528-0.092 3.147-0.203 4.656-0.203h146.798c0.143-0.001 0.312-0.002 0.481-0.002 41.198 0 74.637 33.226 74.979 74.344v144.694c-0.004 1.948-0.118 3.868-0.335 5.754l0.022-0.233v17.54h382.934c0.11 0.001 0.239 0.001 0.369 0.001 29.254 0 52.997-23.6 53.226-52.802v-395.269c-16.442 4.036-35.318 6.349-54.733 6.349-0.13 0-0.261 0-0.391 0h0.020c-0.129 0-0.281 0-0.434 0-54.751 0-105.161-18.596-145.257-49.816l0.531 0.398h-317.191c-13.784 0-24.958-11.173-24.958-24.958s11.173-24.958 24.958-24.958h269.154c-26.541-36.931-42.444-83.062-42.444-132.905 0-69.394 30.825-131.589 79.529-173.639l0.295-0.249zM203.239 167.335c0.115-13.807 11.335-24.958 25.159-24.958 0.058 0 0.118 0 0.175 0.001h187.409c13.784 0 24.958 11.173 24.958 24.958s-11.173 24.958-24.958 24.958v0h-187.418c-0.050 0-0.108 0.001-0.166 0.001-13.825 0-25.045-11.149-25.159-24.947v-0.011zM203.35 430.011c0.115-13.807 11.335-24.958 25.159-24.958 0.058 0 0.118 0 0.175 0.001h374.716c13.784 0 24.958 11.173 24.958 24.958s-11.173 24.958-24.958 24.958h-374.725c-0.050 0-0.108 0.001-0.166 0.001-13.825 0-25.045-11.149-25.159-24.947v-0.011zM87.656 598.526c-0.101-0.002-0.222-0.003-0.342-0.003-12.259 0-22.196 9.937-22.196 22.196 0 6.15 2.502 11.717 6.545 15.739l0.001 0.001 169.326 166.859c4.009 4.068 9.579 6.59 15.737 6.59 0.026 0 0.052 0 0.077 0h-0.004c0.088 0.001 0.191 0.002 0.296 0.002 12.326 0 22.326-9.956 22.399-22.265v-144.669c-0.165-24.574-20.125-44.431-44.723-44.431-0.122 0-0.247 0.001-0.369 0.002h0.019z" />
<glyph unicode="&#xe90c;" glyph-name="manage" data-tags="manage" d="M973.179 29.106c-9.929-7.156-22.339-11.444-35.75-11.444-34 0-61.562 27.562-61.562 61.562 0 11.733 3.282 22.698 8.979 32.030l-0.154-0.271-29.664 40.922c-65.806-56.912-184.443-96.052-321.549-99.958v-60.184c24.35-8.579 41.488-31.386 41.488-58.198 0-34-27.562-61.562-61.562-61.562s-61.562 27.562-61.562 61.562c0 27.28 17.744 50.415 42.318 58.494l0.435 0.123v59.617c-138.677 2.835-259.208 41.716-326.262 98.823l-28.675-39.578c5.637-9.119 8.978-20.176 8.978-32.012 0-34-27.562-61.562-61.562-61.562s-61.562 27.562-61.562 61.562c0 34 27.562 61.562 61.562 61.562 8.149 0 15.925-1.583 23.044-4.457l-0.413 0.147 50.935 70.78c0.013 0.085 0.022 0.184 0.022 0.283s-0.009 0.198-0.024 0.295l0.002-0.011 0.21-0.194 0.486 0.665 28.399-23.637c72.707-50.092 189.546-82.623 321.143-82.623 151.49 0 283.249 42.997 350.872 106.324 0.098 0 0.227-0.324 0.388-0.81l0.825 0.696 51.68-71.817c6.598 2.634 14.245 4.161 22.249 4.161 34 0 61.562-27.562 61.562-61.562 0-20.358-9.881-38.406-25.109-49.614l-0.17-0.12zM764.451 241.866c0.033 5.426 0.049 1.524 0 0zM764.451 225.569s-36.58-73.535-247.091-74.409c-1.187 0.081-2.573 0.127-3.97 0.127s-2.783-0.047-4.155-0.138l0.187 0.011c-210.607 0.874-247.075 74.409-247.075 74.409 0 8.652 0 13.625 0 16.297 0-1.425 0.145-0.778 0.388 11.551 2.835 151.086 24.3 194.632 177.769 222.32v0h0.308c16.896-17.29 40.449-28.013 66.508-28.013 2.124 0 4.233 0.072 6.322 0.211l-0.283-0.015c1.811-0.125 3.924-0.197 6.053-0.197 26.060 0 49.613 10.723 66.492 27.996l0.017 0.017h0.308c153.435-27.687 174.965-71.282 177.769-222.32 0.227-12.345 0.341-12.961 0.388-11.551 0.065-2.69 0.049-7.646 0.049-16.297zM513.571 488.114h-0.357c-73.356 0-132.844 72.205-132.844 161.276s19.522 161.276 132.844 161.276h0.357c113.307 0 132.844-72.205 132.844-161.276s-59.488-161.276-132.844-161.276zM262.349 241.866c-0.049 1.524-0.016 5.426 0 0z" />
<glyph unicode="&#xe90d;" glyph-name="meta" data-tags="meta" d="M918.644 468.894l-331.567-221.045c-66.065-47.468-109.836-25.84-156.027 6.499l-312.015 208.049c-49.696 28.813-86.969 51.641 0 107.264l331.567 217.786c43.961 32.147 79.861 31.88 133.275-6.499l321.791-211.288c64.216-35.368 68.105-65.552 12.976-100.765zM231.311 291.829l222.95-148.634c32.985-23.095 64.256-38.549 111.436-4.65l236.823 157.876c16.465 10.519 25.515 20.389 27.173 30.184h127.233c-1.734-14.12-14.501-28.335-38.245-43.504l-331.567-221.045c-66.065-47.468-109.836-25.84-156.027 6.499l-312.035 208.029c-28.031 16.254-52.097 30.603-52.156 50.001h127.233c0.743-13.339 17.608-23.4 37.196-34.757zM231.311 129.304l222.95-148.634c32.985-23.095 64.256-38.549 111.436-4.65l236.823 157.876c16.465 10.519 25.515 20.389 27.173 30.184h127.233c-1.734-14.12-14.501-28.335-38.245-43.504l-331.567-221.045c-66.065-47.468-109.836-25.84-156.027 6.499l-312.035 208.029c-28.031 16.254-52.097 30.603-52.156 50.001h127.233c0.743-13.339 17.608-23.4 37.196-34.757z" />
<glyph unicode="&#xe90e;" glyph-name="search" data-tags="search" d="M959.34-17.136l-197.115 198.344c46.442 64.376 74.28 144.855 74.28 231.834 0 109.651-44.237 208.968-115.84 281.080l0.023-0.023c-71.35 71.986-170.26 116.554-279.58 116.554s-208.228-44.567-279.55-116.523l-0.030-0.031c-71.561-72.196-115.78-171.598-115.78-281.327s44.219-209.13 115.81-281.358l-0.030 0.031c71.234-71.997 170.050-116.584 279.284-116.584 86.471 0 166.419 27.941 231.303 75.288l-1.116-0.778 197.115-198.317c11.626-11.754 27.754-19.032 45.586-19.032s33.956 7.278 45.58 19.025l0.007 0.007c11.721 11.771 18.969 28.005 18.969 45.933 0 17.9-7.226 34.113-18.918 45.88l0.004-0.004zM252.618 223.096c-48.263 48.665-78.088 115.682-78.088 189.663s29.823 140.998 78.106 189.681l-0.018-0.018c48.079 48.52 114.736 78.558 188.407 78.558s140.327-30.040 188.387-78.539l0.019-0.020c48.244-48.674 78.055-115.686 78.055-189.663s-29.811-140.987-78.073-189.683l0.019 0.020c-48.098-48.477-114.746-78.49-188.407-78.49s-140.308 30.012-188.391 78.474l-0.017 0.017z" />
<glyph unicode="&#xe90f;" glyph-name="settings" data-tags="settings" d="M863.797 233.049l-24.531-58.113s60.001-125.889 54.836-130.885l-75.366-73.775c-5.090-4.833-136.162 50.966-136.162 50.966l-59.242-24.066s-48.56-130.553-55.89-130.553h-106.413c-7.202 0-59.575 130.108-59.575 130.108l-59.353 24.066s-128.61-58.686-133.665-53.687l-75.441 73.7c-4.961 4.961 51.984 133.442 51.984 133.442l-24.512 58.074s-133.293 47.503-133.293 54.687v104.284c0 7.017 133.034 58.168 133.034 58.168l24.437 58.168s-59.964 125.889-54.742 130.979l75.311 73.792c5.036 4.814 136.291-50.966 136.291-50.966l59.242 24.066s48.43 130.553 55.799 130.553h106.47c7.109 0 59.611-130.165 59.611-130.165l59.242-23.956s128.48 58.575 133.737 53.502l75.366-73.608c4.961-4.961-51.948-133.293-51.948-133.293l24.512-58.168s133.385-47.431 133.293-54.558v-104.228c0.056-7.202-133.034-58.538-133.034-58.538zM512.051 523.813c-99.136-2.178-178.668-83.060-178.668-182.514 0-100.823 81.734-182.556 182.556-182.556s182.556 81.734 182.556 182.556c0 0.025 0 0.049 0 0.074v-0.004c-1.333 101.049-83.56 182.452-184.801 182.452-0.598 0-1.194-0.003-1.791-0.009l0.090 0.001z" />
<glyph unicode="&#xe910;" glyph-name="Add" data-tags="Add" d="M895.536 320.046c-0.011 98.142-37.455 196.281-112.335 271.161-149.781 149.781-392.623 149.781-542.403 0s-149.781-392.623 0-542.403c74.88-74.88 173.019-112.326 271.162-112.335h-0.001c98.129 0.1 196.237 37.588 271.113 112.464s112.365 172.984 112.464 271.123v-0.008zM511.985 106.164c-7.548 0.002-15.095 2.881-20.853 8.641s-8.638 13.306-8.641 20.853v154.895h-162.268c-7.334 0.148-14.636 3.026-20.244 8.634-11.521 11.521-11.521 30.199 0 41.719 5.607 5.607 12.91 8.485 20.258 8.634h162.255v154.895c-0.158 7.763 2.72 15.563 8.634 21.475 11.521 11.521 30.199 11.521 41.719 0 5.913-5.913 8.791-13.713 8.634-21.462v-154.909h147.522c7.763 0.158 15.563-2.72 21.475-8.634 11.521-11.521 11.521-30.199 0-41.719-5.913-5.913-13.713-8.791-21.462-8.634h-147.536v-154.895c-0.002-7.548-2.881-15.095-8.641-20.853s-13.306-8.638-20.853-8.641v0z" />
<glyph unicode="&#xe911;" glyph-name="admin" data-tags="admin" d="M157.532-43.464c0 12.33 0 19.382 0 23.213 0-2.030 0.203-1.116 0.533 16.44 4.009 215.029 34.452 277.007 251.155 316.405 23.849-24.597 57.199-39.862 94.115-39.862 3.047 0 6.067 0.103 9.061 0.308l-0.406-0.022c2.592-0.183 5.618-0.287 8.667-0.287 36.912 0 70.259 15.266 94.072 39.828l0.033 0.033c219.19-39.829 247.832-102.744 251.307-323.583-0.033-1.132-0.051-2.462-0.051-3.796 0-4.021 0.165-8.003 0.491-11.94l-0.033 0.517c0-3.754 0-9.26 0-17.149 0 0-52.185-105.916-354.459-105.916s-354.484 105.815-354.484 105.815zM866.449-26.289c0.051 14.688 0.126 2.105 0.026 0zM157.506-20.251c-0.051 2.182-0.026 7.711 0 0zM324.436 559.739c0 126.846 27.601 229.54 187.732 229.54s187.732-102.77 187.732-229.54-84.022-229.54-187.732-229.54-187.732 102.77-187.732 229.54z" />
<glyph unicode="&#xe912;" glyph-name="setting" data-tags="setting" d="M826.016 20.842l-10.824-25.677c8.265-15.856 16.446-34.942 23.272-54.66l0.936-3.107-33.256-32.572c-23.993 7.271-43.919 14.909-63.175 23.75l3.076-1.266-26.185-10.596c-7.924-22.75-16.251-41.772-25.821-60.041l1.157 2.426h-47.046c-8.831 15.791-17.672 34.706-25.217 54.264l-1.069 3.15-26.185 10.646c-16.047-8.025-35.558-16.048-55.677-22.746l-3.309-0.955-33.308 32.522c7.391 23.416 15.17 42.913 24.161 61.718l-1.221-2.836-10.798 25.602c-23.32 7.767-42.779 15.932-61.505 25.336l2.646-1.205v46.057c16.011 8.573 35.376 17.228 55.361 24.599l3.344 1.079 10.772 25.677c-8.285 15.898-16.451 35.004-23.24 54.75l-0.917 3.068 33.231 32.572c24.033-7.286 43.973-14.923 63.252-23.756l-3.101 1.274 26.134 10.596c7.89 22.735 16.2 41.761 25.762 60.027l-1.149-2.41h46.995c8.807-15.771 17.654-34.691 25.226-54.248l1.086-3.191 26.185-10.571c16.116 8.051 35.649 16.045 55.801 22.678l3.234 0.922 33.256-32.496c-7.345-23.407-15.083-42.898-24.032-61.702l1.218 2.843 10.824-25.677c23.336-7.764 42.794-15.91 61.527-25.291l-2.668 1.21v-46.007c-16.025-8.595-35.404-17.275-55.407-24.669l-3.349-1.084zM670.758 149.178c-43.767-0.951-78.883-36.657-78.883-80.563 0-44.505 36.078-80.581 80.581-80.581s80.581 36.078 80.581 80.581c0 0.011 0 0.023 0 0.034v-0.002c-0.584 44.602-36.878 80.533-81.563 80.533-0.251 0-0.504-0.001-0.754-0.004h0.038zM490.027 330.595c-103.318 0-187.094 101.645-187.094 227.017s27.502 227.017 187.094 227.017 187.094-101.645 187.094-227.017-83.776-227.043-187.094-227.043zM490.027 274.017c2.59-0.183 5.613-0.287 8.66-0.287 36.703 0 69.882 15.088 93.671 39.4l0.023 0.024c8.922-1.623 17.516-3.27 25.804-5.069-113.057-42.814-191.978-150.193-191.978-276.004 0-66.308 21.922-127.493 58.912-176.709l-0.545 0.756c-296.572 1.242-348.029 104.738-348.029 104.738 0 12.192 0 19.163 0 22.94 0-2.028 0.203-1.116 0.533 16.274 3.979 212.671 34.271 273.987 250.388 312.947 23.804-24.273 56.941-39.318 93.591-39.318 3.155 0 6.284 0.112 9.384 0.331l-0.417-0.024zM136.625-16.065c-0.051 2.231-0.026 7.656 0 0z" />
<glyph unicode="&#xe913;" glyph-name="remainder" data-tags="remainder" d="M436.041 504.61c0-0.096 0-0.213 0-0.328 0-57.952 19.603-111.323 52.541-153.847l-0.43 0.576q4.169-5.428 8.653-10.641l0.751-0.873q4.194-4.848 8.653-9.502l0.824-0.873q4.848-4.848 9.696-9.573v0c9.869-9.192 20.652-17.725 32.086-25.355l0.925-0.582 1.648-1.068q4.848-3.126 9.817-6.061l2.617-1.503q4.654-2.642 9.428-5.114l2.885-1.478q4.993-2.423 10.082-4.848l2.423-1.068c6.778-3.066 15.399-6.316 24.234-9.093l1.775-0.48 2.909-0.824c3.395-0.994 6.786-1.938 10.229-2.787 1.503-0.364 3.006-0.704 4.509-1.043 2.981-0.679 5.962-1.308 8.993-1.892l5.043-0.898c2.932-0.485 5.913-0.92 8.872-1.333 1.697-0.219 3.395-0.46 5.114-0.654 3.176-0.364 6.376-0.63 9.696-0.849 1.503 0 2.981-0.265 4.484-0.339 4.703-0.265 9.453-0.413 14.227-0.413s8.968 0.12 13.427 0.364l1.648 0.12c3.95 0.243 7.879 0.534 11.779 0.944h0.582c9.996 1.094 18.712 2.546 27.266 4.431l-1.67-0.308v-0.315c10.422-27.558 28.043-38.782 56.524-67.117 6.532-6.442 12.42-13.508 17.575-21.108l0.312-0.489c15.184-19.072 24.362-43.512 24.362-70.099 0-62.389-50.551-112.971-112.925-113.025h-473.529c-62.436 0.034-113.035 50.658-113.035 113.097 0 14.227 2.627 27.84 7.422 40.381l-0.261-0.775c2.168 8.494 6.036 15.887 11.244 22.119l-0.073-0.088c4.367 6.6 9.059 12.355 14.261 17.606l-0.010-0.010c20.942 24.044 48.309 49.568 55.749 58.391 7.237 8.742 12.264 19.561 14.085 31.438l0.046 0.363 37.739 309.016c8.411 109.14 99.041 194.514 209.61 194.514 40.172 0 77.714-11.269 109.633-30.819l-0.92 0.522c-96.381-37.075-163.538-128.905-163.538-236.422 0-0.001 0-0.001 0-0.002v0zM490.796-131.313c-47.806 0.391-90.069 23.79-116.302 59.652l-0.286 0.411h233.174c-26.519-36.272-68.781-59.67-116.525-60.063h-0.062zM688.655 310.289c-107.32 0-194.321 87.001-194.321 194.321s87.001 194.321 194.321 194.321c107.32 0 194.321-87.001 194.321-194.321v0c0-107.32-87.001-194.321-194.321-194.321v0zM734.563 571.749c0.002 0.138 0.004 0.297 0.004 0.457 0 16.258-12.316 29.644-28.127 31.33l-0.138 0.011c-0.534 0-1.043 0-1.552 0s-1.308 0-1.987 0h-52.985c-15.608 0-28.262-12.654-28.262-28.262s12.654-28.262 28.262-28.262v0h28.262v-116.587c0-15.608 12.654-28.262 28.262-28.262s28.262 12.654 28.262 28.262v0z" />
<glyph unicode="&#xe914;" glyph-name="download_left" data-tags="download_left" d="M942.678 367.849l-150.92-155.943c-5.006-2.945-11.025-4.684-17.452-4.684-19.248 0-34.852 15.604-34.852 34.852 0 0.008 0 0.013 0 0.021v-0.001 111.044h-150.791c-20.218 0-36.609 16.392-36.609 36.609s16.392 36.609 36.609 36.609v0h150.92v113.733c0.032 19.227 15.623 34.799 34.852 34.799 6.374 0 12.35-1.712 17.49-4.699l-0.166 0.090 150.791-142.052c10.532-6.128 17.501-17.363 17.501-30.227 0-12.81-6.911-24.007-17.21-30.064l-0.163-0.090zM660.112 541.399c0-19.256-15.611-34.866-34.866-34.866s-34.866 15.611-34.866 34.866v0 118.552c0 19.248-15.604 34.852-34.852 34.852v0h-281.696l93.437-6.97c38.511 0 69.733-31.219 69.733-69.733v0-564.8h118.525c19.248 0 34.852 15.604 34.852 34.852v0 160.376c0 19.256 15.611 34.866 34.866 34.866s34.866-15.611 34.866-34.866v0-160.376c0-57.762-46.823-104.585-104.585-104.585v0h-118.525v-41.848c0-38.511-31.219-69.733-69.733-69.733v0l-233.592 73.242c-48.308 11.147-69.733 38.185-69.733 76.703v641.502c0 57.762 46.823 104.585 104.585 104.585h386.972c57.762 0 104.585-46.823 104.585-104.585v0-115.067z" />
<glyph unicode="&#xe915;" glyph-name="minus" data-tags="minus" d="M852.863 320.040c-0.009 87.224-33.289 174.447-99.839 240.997-133.119 133.119-348.947 133.119-482.067 0s-133.119-348.947 0-482.067c66.55-66.55 153.773-99.83 240.998-99.839h-0.001c87.213 0.088 174.407 33.406 240.955 99.954s99.865 153.742 99.954 240.963v-0.008zM354.666 293.84c-6.518 0.132-13.008 2.69-17.992 7.674-10.239 10.239-10.239 26.839 0 37.079 4.983 4.983 11.474 7.541 18.004 7.674h-0.012c151.939 2.060 196.643 0 327.658 0 6.743 0.020 13.491-2.543 18.635-7.686 10.249-10.249 10.249-26.865 0-37.113-5.105-5.105-11.789-7.667-18.48-7.686h0.002z" />
<glyph unicode="&#xe916;" glyph-name="error" data-tags="error" d="M554 278.002v256h-84v-256h84zM554 106.002v86h-84v-86h84zM512 746.002q176 0 301-125t125-301-125-301-301-125-301 125-125 301 125 301 301 125z" />
<glyph unicode="&#xe917;" glyph-name="error_outline" data-tags="error_outline" d="M512-21.998q140 0 241 101t101 241-101 241-241 101-241-101-101-241 101-241 241-101zM512 746.002q176 0 301-125t125-301-125-301-301-125-301 125-125 301 125 301 301 125zM470 534.002h84v-256h-84v256zM470 192.002h84v-86h-84v86z" />
<glyph unicode="&#xe918;" glyph-name="warning" data-tags="warning, report_problem" d="M554 234.002v172h-84v-172h84zM554 64.002v86h-84v-86h84zM42-63.998l470 810 470-810h-940z" />
<glyph unicode="&#xe919;" glyph-name="add_alert" data-tags="add_alert" d="M682 276.002v86h-128v128h-84v-128h-128v-86h128v-128h84v128h128zM806 114.002l90-90v-46h-768v46l90 90v248q0 96 66 180t160 106v30q0 28 20 48t48 20 48-20 20-48v-30q98-22 162-103t64-183v-248zM428-63.998h168q0-34-25-60t-59-26-59 26-25 60z" />
<glyph unicode="&#xe91a;" glyph-name="notification_important" data-tags="notification_important" d="M512-105.998q-36 0-61 24t-25 60h172q0-34-26-59t-60-25zM554 320.002v170h-84v-170h84zM554 150.002v84h-84v-84h84zM768 150.002l86-86v-42h-684v42l86 86v212q0 100 51 174t141 96v30q0 26 18 45t46 19 46-19 18-45v-30q90-22 141-96t51-174v-212z" />
<glyph unicode="&#xe91b;" glyph-name="album" data-tags="album" d="M512 362.002q18 0 30-12t12-30-12-30-30-12-30 12-12 30 12 30 30 12zM512 128.002q80 0 136 56t56 136-56 136-136 56-136-56-56-136 56-136 136-56zM512 746.002q176 0 301-125t125-301-125-301-301-125-301 125-125 301 125 301 301 125z" />
<glyph unicode="&#xe91c;" glyph-name="av_timer" data-tags="av_timer" d="M256 320.002q0 18 12 30t30 12 31-12 13-30-13-30-31-12-30 12-12 30zM768 320.002q0-18-12-30t-30-12-31 12-13 30 13 30 31 12 30-12 12-30zM470 704.002h42q160 0 272-112t112-272-112-272-272-112-272 112-112 272q0 192 154 306v2l290-290-60-60-232 230q-66-82-66-188 0-124 87-211t211-87 211 87 87 211q0 112-74 196t-182 100v-82h-84v170zM470 106.002q0 18 12 31t30 13 30-13 12-31-12-30-30-12-30 12-12 30z" />
<glyph unicode="&#xe91d;" glyph-name="closed_caption" data-tags="closed_caption" d="M768 362.002v44q0 18-12 30t-30 12h-128q-18 0-31-12t-13-30v-172q0-18 13-30t31-12h128q18 0 30 12t12 30v44h-64v-22h-86v128h86v-22h64zM470 362.002v44q0 18-13 30t-31 12h-128q-18 0-30-12t-12-30v-172q0-18 12-30t30-12h128q18 0 31 12t13 30v44h-64v-22h-86v128h86v-22h64zM810 662.002q34 0 60-26t26-60v-512q0-34-26-60t-60-26h-596q-36 0-61 25t-25 61v512q0 36 25 61t61 25h596z" />
<glyph unicode="&#xe91e;" glyph-name="equalizer" data-tags="equalizer" d="M682 448.002h172v-470h-172v470zM170-21.998v342h172v-342h-172zM426-21.998v684h172v-684h-172z" />
<glyph unicode="&#xe91f;" glyph-name="explicit" data-tags="explicit" d="M640 448.002v86h-256v-428h256v86h-170v86h170v84h-170v86h170zM810 704.002q34 0 60-26t26-60v-596q0-34-26-60t-60-26h-596q-34 0-60 26t-26 60v596q0 34 26 60t60 26h596z" />
<glyph unicode="&#xe920;" glyph-name="fast_forward" data-tags="fast_forward" d="M554 576.002l364-256-364-256v512zM170 64.002v512l364-256z" />
<glyph unicode="&#xe921;" glyph-name="fast_rewind" data-tags="fast_rewind" d="M490 320.002l364 256v-512zM470 64.002l-364 256 364 256v-512z" />
<glyph unicode="&#xe922;" glyph-name="games" data-tags="games, gamepad" d="M704 448.002h234v-256h-234l-128 128zM384 128.002l128 128 128-128v-234h-256v234zM320 448.002l128-128-128-128h-234v256h234zM640 512.002l-128-128-128 128v234h256v-234z" />
<glyph unicode="&#xe923;" glyph-name="hearing" data-tags="hearing" d="M490 448.002q0 44 32 75t76 31 75-31 31-75-31-75-75-31-76 31-32 75zM326 720.002q-112-112-112-272t112-272l-60-60q-138 138-138 332t138 332zM726-21.998q34 0 59 26t25 60h86q0-70-50-120t-120-50q-38 0-70 14-82 42-118 152-14 44-72 88-82 60-122 134-46 82-46 166 0 126 87 212t213 86 212-86 86-212h-86q0 90-61 152t-151 62-152-62-62-152q0-64 34-126 28-54 100-108 80-60 102-128 26-76 72-100 16-8 34-8z" />
<glyph unicode="&#xe924;" glyph-name="high_quality" data-tags="high_quality" d="M618 256.002v128h86v-128h-86zM768 234.002v172q0 18-12 30t-30 12h-128q-18 0-31-12t-13-30v-172q0-18 13-30t31-12h32v-64h64v64h32q18 0 30 12t12 30zM470 192.002v256h-64v-106h-86v106h-64v-256h64v86h86v-86h64zM810 662.002q34 0 60-26t26-60v-512q0-34-26-60t-60-26h-596q-36 0-61 25t-25 61v512q0 36 25 61t61 25h596z" />
<glyph unicode="&#xe925;" glyph-name="loop" data-tags="loop, sync" d="M512 64.002v128l170-170-170-172v128q-140 0-241 101t-101 241q0 100 54 182l62-62q-30-54-30-120 0-106 75-181t181-75zM512 662.002q140 0 241-101t101-241q0-100-54-182l-62 62q30 54 30 120 0 106-75 181t-181 75v-128l-170 170 170 172v-128z" />
<glyph unicode="&#xe926;" glyph-name="mic" data-tags="mic" d="M738 362.002h72q0-108-75-189t-181-97v-140h-84v140q-106 16-181 97t-75 189h72q0-94 67-155t159-61 159 61 67 155zM512 234.002q-52 0-90 38t-38 90v256q0 52 38 90t90 38 90-38 38-90v-256q0-52-38-90t-90-38z" />
<glyph unicode="&#xe927;" glyph-name="mic_none" data-tags="mic_none" d="M738 362.002h72q0-108-75-189t-181-97v-140h-84v140q-106 16-181 97t-75 189h72q0-94 67-155t159-61 159 61 67 155zM460 622.002v-264q0-20 15-35t37-15q20 0 35 14t15 36l2 264q0 22-16 37t-36 15-36-15-16-37zM512 234.002q-52 0-90 38t-38 90v256q0 52 38 90t90 38 90-38 38-90v-256q0-52-38-90t-90-38z" />
<glyph unicode="&#xe928;" glyph-name="mic_off" data-tags="mic_off" d="M182 704.002l714-714-54-54-178 178q-44-28-110-38v-140h-84v140q-106 16-181 97t-75 189h72q0-94 67-155t159-61q50 0 98 22l-70 70q-16-4-28-4-52 0-90 38t-38 90v32l-256 256zM640 356.002l-256 254v8q0 52 38 90t90 38 90-38 38-90v-262zM810 362.002q0-74-38-140l-52 54q18 40 18 86h72z" />
<glyph unicode="&#xe929;" glyph-name="movie" data-tags="movie, movie_creation" d="M768 662.002h170v-598q0-34-25-60t-59-26h-684q-34 0-59 26t-25 60v512q0 34 25 60t59 26h44l84-172h128l-84 172h84l86-172h128l-86 172h86l86-172h128z" />
<glyph unicode="&#xe92a;" glyph-name="library_add" data-tags="library_add, queue, add_to_photos" d="M810 362.002v86h-170v170h-86v-170h-170v-86h170v-170h86v170h170zM854 746.002q34 0 59-25t25-59v-512q0-34-25-60t-59-26h-512q-34 0-60 26t-26 60v512q0 34 26 59t60 25h512zM170 576.002v-598h598v-84h-598q-34 0-59 25t-25 59v598h84z" />
<glyph unicode="&#xe92b;" glyph-name="library_books" data-tags="library_books" d="M810 534.002v84h-426v-84h426zM640 192.002v86h-256v-86h256zM810 362.002v86h-426v-86h426zM854 746.002q34 0 59-25t25-59v-512q0-34-25-60t-59-26h-512q-34 0-60 26t-26 60v512q0 34 26 59t60 25h512zM170 576.002v-598h598v-84h-598q-34 0-59 25t-25 59v598h84z" />
<glyph unicode="&#xe92c;" glyph-name="library_music" data-tags="library_music" d="M170 576.002v-598h598v-84h-598q-34 0-59 25t-25 59v598h84zM768 534.002v84h-170v-234q-28 22-64 22-44 0-76-32t-32-76 32-75 76-31 75 31 31 75v236h128zM854 746.002q34 0 59-25t25-59v-512q0-34-25-60t-59-26h-512q-34 0-60 26t-26 60v512q0 34 26 59t60 25h512z" />
<glyph unicode="&#xe92d;" glyph-name="new_releases" data-tags="new_releases" d="M554 278.002v256h-84v-256h84zM554 106.002v86h-84v-86h84zM982 320.002l-104-118 14-158-154-34-80-136-146 62-146-62-80 134-154 36 14 158-104 118 104 120-14 156 154 34 80 136 146-62 146 62 80-136 154-34-14-158z" />
<glyph unicode="&#xe92e;" glyph-name="not_interested" data-tags="not_interested, do_not_disturb" d="M782 110.002q72 90 72 210 0 140-101 241t-241 101q-48 0-110-21t-100-51zM512-21.998q48 0 110 21t100 51l-480 480q-72-90-72-210 0-140 101-241t241-101zM512 746.002q176 0 301-125t125-301-125-301-301-125-301 125-125 301 125 301 301 125z" />
<glyph unicode="&#xe92f;" glyph-name="pause" data-tags="pause" d="M598 618.002h170v-596h-170v596zM256 22.002v596h170v-596h-170z" />
<glyph unicode="&#xe930;" glyph-name="pause_circle_filled" data-tags="pause_circle_filled" d="M640 150.002v340h-86v-340h86zM470 150.002v340h-86v-340h86zM512 746.002q176 0 301-125t125-301-125-301-301-125-301 125-125 301 125 301 301 125z" />
<glyph unicode="&#xe931;" glyph-name="pause_circle_outline" data-tags="pause_circle_outline" d="M554 150.002v340h86v-340h-86zM512-21.998q140 0 241 101t101 241-101 241-241 101-241-101-101-241 101-241 241-101zM512 746.002q176 0 301-125t125-301-125-301-301-125-301 125-125 301 125 301 301 125zM384 150.002v340h86v-340h-86z" />
<glyph unicode="&#xe932;" glyph-name="play_arrow" data-tags="play_arrow" d="M342 618.002l468-298-468-298v596z" />
<glyph unicode="&#xe933;" glyph-name="play_circle_filled" data-tags="play_circle_filled" d="M426 128.002l256 192-256 192v-384zM512 746.002q176 0 301-125t125-301-125-301-301-125-301 125-125 301 125 301 301 125z" />
<glyph unicode="&#xe934;" glyph-name="play_circle_outline" data-tags="play_circle_outline" d="M512-21.998q140 0 241 101t101 241-101 241-241 101-241-101-101-241 101-241 241-101zM512 746.002q176 0 301-125t125-301-125-301-301-125-301 125-125 301 125 301 301 125zM426 128.002v384l256-192z" />
<glyph unicode="&#xe935;" glyph-name="playlist_add" data-tags="playlist_add" d="M86 150.002v84h340v-84h-340zM768 234.002h170v-84h-170v-172h-86v172h-170v84h170v172h86v-172zM598 576.002v-86h-512v86h512zM598 406.002v-86h-512v86h512z" />
<glyph unicode="&#xe936;" glyph-name="queue_music" data-tags="queue_music" d="M726 576.002h212v-86h-128v-384q0-52-38-90t-90-38-90 38-38 90 38 90 90 38q16 0 44-8v350zM128 150.002v84h342v-84h-342zM640 406.002v-86h-512v86h512zM640 576.002v-86h-512v86h512z" />
<glyph unicode="&#xe937;" glyph-name="radio" data-tags="radio" d="M854 320.002v170h-684v-170h512v86h86v-86h86zM298-21.998q52 0 90 38t38 90-38 90-90 38-90-38-38-90 38-90 90-38zM138 570.002l540 220 28-72-352-142h500q36 0 60-25t24-61v-512q0-36-24-60t-60-24h-684q-36 0-60 24t-24 60v512q0 60 52 80z" />
<glyph unicode="&#xe938;" glyph-name="recent_actors" data-tags="recent_actors" d="M534 106.002v32q0 44-66 70t-126 26-126-26-66-70v-32h384zM342 502.002q-38 0-67-29t-29-67 29-67 67-29 67 29 29 67-29 67-67 29zM598 618.002q18 0 30-12t12-30v-512q0-18-12-30t-30-12h-512q-18 0-31 12t-13 30v512q0 18 13 30t31 12h512zM726 22.002v596h84v-596h-84zM896 618.002h86v-596h-86v596z" />
<glyph unicode="&#xe939;" glyph-name="repeat" data-tags="repeat" d="M726 106.002v172h84v-256h-512v-128l-170 170 170 170v-128h428zM298 534.002v-172h-84v256h512v128l170-170-170-170v128h-428z" />
<glyph unicode="&#xe93a;" glyph-name="repeat_one" data-tags="repeat_one" d="M554 192.002h-64v170h-64v44l86 42h42v-256zM726 106.002v172h84v-256h-512v-128l-170 170 170 170v-128h428zM298 534.002v-172h-84v256h512v128l170-170-170-170v128h-428z" />
<glyph unicode="&#xe93b;" glyph-name="replay" data-tags="replay" d="M512 618.002q142 0 242-100t100-240q0-142-101-242t-241-100-241 100-101 242h86q0-106 75-181t181-75 181 75 75 181-75 181-181 75v-172l-214 214 214 214v-172z" />
<glyph unicode="&#xe93c;" glyph-name="shuffle" data-tags="shuffle" d="M632 260.002l134-134 88 88v-236h-236l88 88-134 134zM618 662.002h236v-236l-88 88-536-536-60 60 536 536zM452 440.002l-60-60-222 222 60 60z" />
<glyph unicode="&#xe93d;" glyph-name="skip_next" data-tags="skip_next" d="M682 576.002h86v-512h-86v512zM256 64.002v512l362-256z" />
<glyph unicode="&#xe93e;" glyph-name="skip_previous" data-tags="skip_previous" d="M406 320.002l362 256v-512zM256 576.002h86v-512h-86v512z" />
<glyph unicode="&#xe93f;" glyph-name="snooze" data-tags="snooze" d="M384 362.002v86h256v-76l-154-180h154v-86h-256v78l154 178h-154zM512-21.998q124 0 211 88t87 212-87 211-211 87-211-87-87-211 87-212 211-88zM512 662.002q160 0 272-113t112-271-112-271-272-113-272 113-112 271 112 271 272 113zM938 588.002l-54-66-196 166 54 64zM336 688.002l-196-164-54 64 196 164z" />
<glyph unicode="&#xe940;" glyph-name="stop" data-tags="stop" d="M256 576.002h512v-512h-512v512z" />
<glyph unicode="&#xe941;" glyph-name="subtitles" data-tags="subtitles" d="M854 234.002v86h-428v-86h428zM854 64.002v86h-172v-86h172zM598 64.002v86h-428v-86h428zM170 320.002v-86h172v86h-172zM854 662.002q34 0 59-26t25-60v-512q0-34-25-60t-59-26h-684q-34 0-59 26t-25 60v512q0 34 25 60t59 26h684z" />
<glyph unicode="&#xe942;" glyph-name="surround_sound" data-tags="surround_sound" d="M512 406.002q34 0 60-26t26-60-26-60-60-26-60 26-26 60 26 60 60 26zM754 78.002q100 100 100 242v2q0 58-29 129t-71 111l-62-62q76-76 76-180 0-108-74-182zM512 150.002q70 0 120 50t50 120-50 120-120 50-120-50-50-120 50-120 120-50zM332 140.002q-76 76-76 180 0 108 74 182l-60 60q-100-100-100-242v-2q0-58 29-129t71-111zM854 662.002q34 0 59-26t25-60v-512q0-34-25-60t-59-26h-684q-34 0-59 26t-25 60v512q0 34 25 60t59 26h684z" />
<glyph unicode="&#xe943;" glyph-name="video_library" data-tags="video_library" d="M512 214.002l256 192-256 192v-384zM854 746.002q34 0 59-25t25-59v-512q0-34-25-60t-59-26h-512q-34 0-60 26t-26 60v512q0 34 26 59t60 25h512zM170 576.002v-598h598v-84h-598q-34 0-59 25t-25 59v598h84z" />
<glyph unicode="&#xe944;" glyph-name="videocam" data-tags="videocam" d="M726 384.002l170 170v-468l-170 170v-150q0-18-13-30t-31-12h-512q-18 0-30 12t-12 30v428q0 18 12 30t30 12h512q18 0 31-12t13-30v-150z" />
<glyph unicode="&#xe945;" glyph-name="videocam_off" data-tags="videocam_off" d="M140 746.002l756-756-54-54-136 136q-12-8-24-8h-512q-18 0-30 12t-12 30v428q0 18 12 30t30 12h32l-116 116zM896 554.002v-456l-478 478h264q18 0 31-12t13-30v-150z" />
<glyph unicode="&#xe946;" glyph-name="volume_down" data-tags="volume_down" d="M214 448.002h170l214 214v-684l-214 214h-170v256zM790 320.002q0-118-108-172v344q44-22 76-73t32-99z" />
<glyph unicode="&#xe947;" glyph-name="volume_mute" data-tags="volume_mute" d="M298 448.002h172l212 214v-684l-212 214h-172v256z" />
<glyph unicode="&#xe948;" glyph-name="volume_off" data-tags="volume_off" d="M512 662.002v-180l-90 90zM182 704.002l714-714-54-54-88 88q-66-56-156-78v88q50 14 96 50l-182 182v-288l-214 214h-170v256h202l-202 202zM810 320.002q0 102-59 180t-153 106v88q130-28 214-133t84-241q0-94-44-178l-64 66q22 54 22 112zM704 320.002q0-18-2-26l-104 104v94q44-22 75-72t31-100z" />
<glyph unicode="&#xe949;" glyph-name="volume_up" data-tags="volume_up" d="M598 694.002q130-28 214-133t84-241-84-241-214-133v88q94 28 153 106t59 180-59 180-153 106v88zM704 320.002q0-120-106-172v344q44-22 75-72t31-100zM128 448.002h170l214 214v-684l-214 214h-170v256z" />
<glyph unicode="&#xe94a;" glyph-name="web" data-tags="web" d="M854 64.002v384h-172v-384h172zM640 278.002v170h-470v-170h470zM640 64.002v170h-470v-170h470zM854 662.002q34 0 59-26t25-60v-512q0-34-25-60t-59-26h-684q-34 0-59 26t-25 60v512q0 34 25 60t59 26h684z" />
<glyph unicode="&#xe94b;" glyph-name="hd" data-tags="hd" d="M618 256.002v128h86v-128h-86zM554 448.002v-256h172q18 0 30 12t12 30v172q0 18-12 30t-30 12h-172zM470 192.002v256h-64v-106h-86v106h-64v-256h64v86h86v-86h64zM810 704.002q34 0 60-26t26-60v-596q0-34-26-60t-60-26h-596q-36 0-61 25t-25 61v596q0 36 25 61t61 25h596z" />
<glyph unicode="&#xe94c;" glyph-name="sort_by_alpha" data-tags="sort_by_alpha" d="M672 144.002h260v-68h-364v54l252 366h-250v68h354v-54zM212 250.002h166l-84 222zM260 564.002h70l192-488h-78l-40 104h-218l-40-104h-78zM438 6.002h198l-100-100zM638 634.002h-202l100 100z" />
<glyph unicode="&#xe94d;" glyph-name="airplay" data-tags="airplay" d="M896 704.002q34 0 60-26t26-60v-512q0-34-26-59t-60-25h-170v84h170v512h-768v-512h170v-84h-170q-34 0-60 25t-26 59v512q0 34 26 60t60 26h768zM256-105.998l256 256 256-256h-512z" />
<glyph unicode="&#xe94e;" glyph-name="forward_10" data-tags="forward_10" d="M564 184.002q0-14 20-14 10 0 14 4l8 10q4 8 4 12v86q-4 8-4 12t-9 9-13 5q-6 0-12-6l-8-8q-6-8-6-12v-86q6-8 6-12zM644 226.002q0-26-4-34l-12-26q-14-12-22-12-4 0-13-2t-13-2q-18 0-26 4-4 2-10 6t-10 6q-18 10-18 60v30q0 26 4 34l14 26q12 12 20 12 4 0 13 2t13 2q18 0 26-4 4-2 11-6t11-6 12-26q4-12 4-34v-30zM466 150.002h-40v140l-42-12v30l76 24h6v-182zM170 278.002q0 140 100 240t242 100v172l214-214-214-214v172q-104 0-180-75t-76-181 76-181 180-75 180 75 76 181h86q0-142-101-242t-241-100-241 100-101 242z" />
<glyph unicode="&#xe94f;" glyph-name="forward_30" data-tags="forward_30" d="M170 278.002q0 140 100 240t242 100v172l214-214-214-214v172q-104 0-180-75t-76-181 76-181 180-75 180 75 76 181h86q0-142-101-242t-241-100-241 100-101 242zM568 184.002q0-14 20-14 10 0 14 4l8 10q4 8 4 12v86q-4 8-4 12t-9 9-13 5q-6 0-12-6l-8-8q-4-8-4-12v-86q4-8 4-12zM652 226.002q0-26-4-34l-12-26q-14-12-22-12-4 0-13-2t-13-2q-14 0-46 16-4 2-12 26-6 18-6 34v30q0 22 6 34l12 26q14 12 22 12 4 0 12 2t12 2q18 0 26-4 4-2 11-6t11-6 12-26q4-12 4-34v-30zM426 256.002q30 0 30 26v8q-4 4-4 8t-8 4h-22q-4-4-8-4t-4-8v-8h-44q0 16 11 31t25 15q2 0 10 2t10 2q24 0 48-12 16-8 16-38v-14q-4-8-4-12 0-8-8-8-4 0-14-10 18-10 22-16 8-16 8-26 0-18-4-22-2-2-6-8t-6-8q-8-8-22-8-4 0-13-2t-13-2q-16 0-20 4-2 2-10 4t-12 4q-18 10-18 42h36v-8q4-4 4-8t8-4h22q4 4 8 4t4 8v22q-4 4-4 8t-8 4h-26v30h16z" />
<glyph unicode="&#xe950;" glyph-name="forward_5" data-tags="forward_5" d="M500 252.002q-14-6-14-8l-4-6h-26l10 94h102v-30h-74l-4-38q4 0 4 4 0 2 3 3t3 3h16q16 0 22-6 2-2 8-6t8-6q18-18 18-46 0-18-4-22-2-2-6-10t-8-12q-16-16-46-16-18 0-22 4-2 2-9 4t-11 4q-18 10-18 38h34q0-20 26-20 8 0 12 4l10 8q4 8 4 12v26l-4 8-10 10q-8 4-12 4h-8zM170 278.002q0 140 100 240t242 100v172l214-214-214-214v172q-104 0-180-75t-76-181 76-181 180-75 180 75 76 181h86q0-142-101-242t-241-100-241 100-101 242z" />
<glyph unicode="&#xe951;" glyph-name="replay_10" data-tags="replay_10" d="M564 184.002q0-14 20-14 10 0 14 4l8 10q4 8 4 12v86q-4 8-4 12t-9 9-13 5q-6 0-12-6l-8-8q-6-8-6-12v-86q6-8 6-12zM648 226.002q0-26-4-34l-12-26q-14-12-22-12-4 0-13-2t-13-2q-18 0-26 4-4 2-10 6t-10 6q-18 10-18 60v30q0 26 4 34l14 26q12 12 20 12 4 0 13 2t13 2q18 0 26-4 4-2 11-6t11-6 12-26q4-12 4-34v-30zM466 150.002h-40v140l-42-12v30l76 24h6v-182zM512 618.002q142 0 242-100t100-240q0-142-101-242t-241-100-241 100-101 242h86q0-106 76-181t180-75 180 75 76 181-76 181-180 75v-172l-214 214 214 214v-172z" />
<glyph unicode="&#xe952;" glyph-name="replay_30" data-tags="replay_30" d="M572 184.002q0-14 22-14 8 0 12 4l8 10q4 8 4 12v86q0 2-2 6t-2 6q0 4-8 9t-12 5q-8 0-14-6l-8-8q-4-8-4-12v-86q4-8 4-12zM652 226.002q0-26-4-34l-12-26q-14-12-22-12-4 0-13-2t-13-2q-14 0-46 16-4 2-12 26-6 18-6 34v30q0 22 6 34l12 26q14 12 22 12 4 0 12 2t12 2q18 0 26-4 4-2 11-6t11-6 12-26q4-12 4-34v-30zM426 256.002q30 0 30 26v8q-4 4-4 8t-8 4h-22q-4-4-8-4t-4-8v-8h-44q0 16 11 31t25 15q2 0 10 2t10 2q24 0 48-12 16-8 16-38v-14q-4-8-4-12 0-8-8-8-4 0-14-10 18-10 22-16 8-16 8-26 0-18-4-22-2-2-6-8t-6-8q-8-8-22-8-4 0-13-2t-13-2q-16 0-20 4-2 2-10 4t-12 4q-18 10-18 42h36v-8q4-4 4-8t8-4h22q4 4 8 4t4 8v22q-4 4-4 8t-8 4h-26v30h16zM512 618.002q142 0 242-100t100-240q0-142-101-242t-241-100-241 100-101 242h86q0-106 76-181t180-75 180 75 76 181-76 181-180 75v-172l-214 214 214 214v-172z" />
<glyph unicode="&#xe953;" glyph-name="replay_5" data-tags="replay_5" d="M504 252.002q-14-6-14-8l-4-6h-30l10 94h102v-30h-74l-4-38q4 0 4 4 0 2 3 3t3 3h16q16 0 22-6 2-2 8-6t8-6q18-18 18-46 0-18-4-22-2-2-6-10t-8-12-9-7-7-5q-4-4-26-4-18 0-22 4-2 2-9 4t-11 4q-18 10-18 38h34q0-20 26-20 8 0 12 4l10 8q4 8 4 12v26l-4 8-10 10q-8 4-12 4h-8zM512 618.002q142 0 242-100t100-240q0-142-101-242t-241-100-241 100-101 242h86q0-106 76-181t180-75 180 75 76 181-76 181-180 75v-172l-214 214 214 214v-172z" />
<glyph unicode="&#xe954;" glyph-name="add_to_queue" data-tags="add_to_queue" d="M682 406.002v-86h-128v-128h-84v128h-128v86h128v128h84v-128h128zM896 106.002v512h-768v-512h768zM896 704.002q36 0 61-25t25-61l-2-512q0-34-25-59t-59-25h-214v-86h-340v86h-214q-36 0-61 24t-25 60v512q0 36 25 61t61 25h768z" />
<glyph unicode="&#xe955;" glyph-name="fiber_dvr" data-tags="fiber_dvr" d="M896 342.002v42q0 28-18 46t-46 18h-150v-256h64v86h50l36-86h64l-38 90q38 18 38 60zM538 192.002l76 256h-64l-44-146-42 146h-64l74-256h64zM342 256.002v128q0 28-19 46t-45 18h-150v-256h150q26 0 45 18t19 46zM896 704.002q36 0 61-25t25-61v-596q0-36-25-61t-61-25h-768q-36 0-61 25t-25 61v596q0 36 25 61t61 25h768zM192 384.002h86v-128h-86v128zM746 384.002h86v-42h-86v42z" />
<glyph unicode="&#xe956;" glyph-name="fiber_new" data-tags="fiber_new" d="M874 234.002v214h-52v-192h-48v150h-54v-150h-48v192h-54v-214q0-18 13-30t31-12h170q18 0 30 12t12 30zM576 394.002v54h-170v-256h170v54h-106v46h106v54h-106v48h106zM362 192.002v256h-52v-150l-108 150h-52v-256h52v150l110-150h50zM854 662.002q36 0 60-25t24-61v-512q0-36-24-61t-60-25h-684q-36 0-60 25t-24 61v512q0 36 24 61t60 25h684z" />
<glyph unicode="&#xe957;" glyph-name="playlist_play" data-tags="playlist_play" d="M598 234.002l212-128-212-128v256zM170 234.002h342v-84h-342v84zM170 576.002h512v-86h-512v86zM170 406.002h512v-86h-512v86z" />
<glyph unicode="&#xe958;" glyph-name="art_track" data-tags="art_track" d="M448 192.002l-96 128-74-96-54 64-74-96h298zM512 448.002v-256q0-34-26-60t-60-26h-256q-34 0-59 26t-25 60v256q0 34 25 60t59 26h256q34 0 60-26t26-60zM598 106.002v86h340v-86h-340zM938 534.002v-86h-340v86h340zM938 278.002h-340v84h340v-84z" />
<glyph unicode="&#xe959;" glyph-name="fiber_manual_record" data-tags="fiber_manual_record" d="M170 320.002q0 140 101 241t241 101 241-101 101-241-101-241-241-101-241 101-101 241z" />
<glyph unicode="&#xe95a;" glyph-name="fiber_smart_record" data-tags="fiber_smart_record" d="M726 650.002q112-28 184-120t72-210-72-210-184-120v88q70 26 120 97t50 145-50 145-120 97v88zM42 320.002q0 140 101 241t241 101 241-101 101-241-101-241-241-101-241 101-101 241z" />
<glyph unicode="&#xe95b;" glyph-name="music_video" data-tags="music_video" d="M342 192.002q0 52 38 90t90 38q14 0 42-8v264h214v-86h-128v-300q0-52-38-89t-90-37-90 38-38 90zM896 22.002v596h-768v-596h768zM896 704.002q34 0 60-26t26-60v-596q0-34-26-60t-60-26h-768q-34 0-60 26t-26 60v596q0 34 26 60t60 26h768z" />
<glyph unicode="&#xe95c;" glyph-name="subscriptions" data-tags="subscriptions" d="M682 150.002l-256 138v-278zM938 320.002v-342q0-34-25-59t-59-25h-684q-34 0-59 25t-25 59v342q0 34 25 60t59 26h684q34 0 59-26t25-60zM768 746.002v-84h-512v84h512zM854 490.002h-684v86h684v-86z" />
<glyph unicode="&#xe95d;" glyph-name="playlist_add_check" data-tags="playlist_add_check" d="M918 342.002l64-64-298-300-194 192 64 64 130-128zM86 150.002v84h340v-84h-340zM598 576.002v-86h-512v86h512zM598 406.002v-86h-512v86h512z" />
<glyph unicode="&#xe95e;" glyph-name="queue_play_next" data-tags="queue_play_next" d="M1024 64.002l-192-192-64 64 128 128-128 128 64 64zM554 406.002h128v-86h-128v-128h-84v128h-128v86h128v128h84v-128zM896 704.002q36 0 61-25t25-61v-340h-86v340h-768v-512h640v-84h-86v-86h-340v86h-214q-36 0-61 24t-25 60v512q0 36 25 61t61 25h768z" />
<glyph unicode="&#xe95f;" glyph-name="remove_from_queue" data-tags="remove_from_queue" d="M682 406.002v-86h-340v86h340zM896 106.002v512h-768v-512h768zM896 704.002q36 0 61-25t25-61l-2-512q0-34-25-59t-59-25h-214v-86h-340v86h-214q-36 0-61 24t-25 60v512q0 36 25 61t61 25h768z" />
<glyph unicode="&#xe960;" glyph-name="slow_motion_video" data-tags="slow_motion_video" d="M938 320.002q0-164-110-286t-272-138v86q126 16 212 113t86 225-86 225-212 113v86q162-16 272-138t110-286zM242-9.998l60 60q72-56 168-68v-86q-54 6-121 34t-107 60zM174 278.002q10-94 68-166l-60-62q-82 102-94 228h86zM242 530.002q-56-74-68-168h-86q6 54 34 121t60 107zM470 658.002q-96-12-168-68l-60 60q102 82 228 94v-86zM556 414.002l126-94q-126-94-256-192z" />
<glyph unicode="&#xe961;" glyph-name="web_asset" data-tags="web_asset" d="M810 64.002v426h-596v-426h596zM810 662.002q36 0 61-25t25-61v-512q0-34-26-60t-60-26h-596q-36 0-61 25t-25 61v512q0 36 25 61t61 25h596z" />
<glyph unicode="&#xe962;" glyph-name="fiber_pin" data-tags="fiber_pin" d="M854 192.002v256h-54v-150l-106 150h-54v-256h54v150l108-150h52zM534 192.002v256h-64v-256h64zM384 342.002v42q0 28-18 46t-46 18h-150v-256h64v86h86q28 0 46 19t18 45zM854 662.002q36 0 60-25t24-61v-512q0-36-24-61t-60-25h-684q-36 0-60 25t-24 61v512q0 36 24 61t60 25h684zM234 384.002h86v-42h-86v42z" />
<glyph unicode="&#xe963;" glyph-name="branding_watermark" data-tags="branding_watermark" d="M896 22.002v256h-384v-256h384zM896 704.002q34 0 60-26t26-60v-596q0-34-26-60t-60-26h-768q-34 0-60 26t-26 60v596q0 34 26 60t60 26h768z" />
<glyph unicode="&#xe964;" glyph-name="call_to_action" data-tags="call_to_action" d="M896 22.002v128h-768v-128h768zM896 704.002q34 0 60-26t26-60v-596q0-34-26-60t-60-26h-768q-34 0-60 26t-26 60v596q0 34 26 60t60 26h768z" />
<glyph unicode="&#xe965;" glyph-name="featured_play_list" data-tags="featured_play_list" d="M512 534.002v84h-384v-84h384zM512 362.002v86h-384v-86h384zM896 704.002q34 0 60-26t26-60v-596q0-34-26-60t-60-26h-768q-34 0-60 26t-26 60v596q0 34 26 60t60 26h768z" />
<glyph unicode="&#xe966;" glyph-name="featured_video" data-tags="featured_video" d="M512 320.002v298h-384v-298h384zM896 704.002q34 0 60-26t26-60v-596q0-34-26-60t-60-26h-768q-34 0-60 26t-26 60v596q0 34 26 60t60 26h768z" />
<glyph unicode="&#xe967;" glyph-name="note" data-tags="note" d="M640 598.002v-236h234zM938 406.002v-342q0-34-25-59t-59-25l-684-2q-34 0-59 26t-25 60v512q0 34 25 60t59 26h512z" />
<glyph unicode="&#xe968;" glyph-name="video_call" data-tags="video_call" d="M598 278.002v84h-128v128h-86v-128h-128v-84h128v-128h86v128h128zM726 384.002l170 170v-468l-170 170v-150q0-18-13-30t-31-12h-512q-18 0-30 12t-12 30v428q0 18 12 30t30 12h512q18 0 31-12t13-30v-150z" />
<glyph unicode="&#xe969;" glyph-name="video_label" data-tags="video_label" d="M896 150.002v468h-768v-468h768zM896 704.002q34 0 60-26t26-60v-596q0-34-26-60t-60-26h-768q-34 0-60 26t-26 60v596q0 34 26 60t60 26h768z" />
<glyph unicode="&#xe96a;" glyph-name="4k" data-tags="4k" d="M768 192.002l-96 128 96 128h-74l-76-96v96h-64v-256h64v96l76-96h74zM512 256.002v64h-42v128h-64v-128h-64v128h-64v-192h128v-64h64v64h42zM810 704.002q34 0 60-26t26-60v-596q0-34-26-60t-60-26h-596q-34 0-60 26t-26 60v596q0 34 26 60t60 26h596z" />
<glyph unicode="&#xe96b;" glyph-name="missed_video_call" data-tags="missed_video_call" d="M426 192.002l214 214-34 34-180-182-132 134h108v46h-188v-188h46v108zM726 384.002l170 170v-468l-170 170v-150q0-18-13-30t-31-12h-512q-18 0-30 12t-12 30v428q0 18 12 30t30 12h512q18 0 31-12t13-30v-150z" />
<glyph unicode="&#xe96c;" glyph-name="control_camera" data-tags="control_camera" d="M384 320.002q0 52 38 90t90 38 90-38 38-90-38-90-90-38-90 38-38 90zM236 472.002l76-76-76-76 76-76-76-76-150 152zM360 44.002l76 76 76-76 76 76 76-76-152-150zM788 168.002l-76 76 76 76-76 76 76 76 150-152zM664 596.002l-76-76-76 76-76-76-76 76 152 150z" />
<glyph unicode="&#xe96d;" glyph-name="business" data-tags="business, domain" d="M768 192.002v-86h-86v86h86zM768 362.002v-84h-86v84h86zM854 22.002v426h-342v-86h86v-84h-86v-86h86v-86h-86v-84h342zM426 534.002v84h-84v-84h84zM426 362.002v86h-84v-86h84zM426 192.002v86h-84v-86h84zM426 22.002v84h-84v-84h84zM256 534.002v84h-86v-84h86zM256 362.002v86h-86v-86h86zM256 192.002v86h-86v-86h86zM256 22.002v84h-86v-84h86zM512 534.002h426v-598h-852v768h426v-170z" />
<glyph unicode="&#xe96e;" glyph-name="call" data-tags="call" d="M854 176.002q18 0 30-12t12-30v-148q0-50-42-50-298 0-512 214t-214 512q0 42 50 42h148q18 0 30-12t12-30q0-78 24-150 8-26-10-44l-82-72q92-192 294-290l66 84q12 12 30 12 10 0 14-2 72-24 150-24z" />
<glyph unicode="&#xe96f;" glyph-name="call_end" data-tags="call_end" d="M512 448.002q-104 0-196-30v-132q0-30-24-40-64-30-114-78-12-12-30-12t-30 12l-106 106q-12 12-12 30t12 30q210 200 500 200t500-200q12-12 12-30t-12-30l-106-106q-12-12-30-12t-30 12q-44 42-114 78-24 10-24 38v132q-100 32-196 32z" />
<glyph unicode="&#xe970;" glyph-name="call_made" data-tags="call_made" d="M384 618.002h426v-426h-84v282l-496-496-60 60 496 496h-282v84z" />
<glyph unicode="&#xe971;" glyph-name="call_merge" data-tags="call_merge, merge_type" d="M320 490.002l192 192 192-192h-150v-272l-256-256-60 60 232 230v238h-150zM726-37.998l-146 144 60 60 146-144z" />
<glyph unicode="&#xe972;" glyph-name="call_missed" data-tags="call_missed" d="M836 534.002l60-60-384-384-298 298v-196h-86v342h342v-86h-196l238-238z" />
<glyph unicode="&#xe973;" glyph-name="call_received" data-tags="call_received" d="M854 602.002l-496-496h282v-84h-426v426h84v-282l496 496z" />
<glyph unicode="&#xe974;" glyph-name="call_split" data-tags="call_split" d="M426 662.002l-98-98 226-226v-360h-84v324l-202 202-98-98v256h256zM598 662.002h256v-256l-98 98-124-124-60 60 124 124z" />
<glyph unicode="&#xe975;" glyph-name="chat" data-tags="chat" d="M768 490.002v86h-512v-86h512zM598 234.002v86h-342v-86h342zM256 448.002v-86h512v86h-512zM854 746.002q34 0 59-25t25-59v-512q0-34-25-60t-59-26h-598l-170-170v768q0 34 25 59t59 25h684z" />
<glyph unicode="&#xe976;" glyph-name="clear_all" data-tags="clear_all" d="M298 534.002h598v-86h-598v86zM128 106.002v86h598v-86h-598zM214 278.002v84h596v-84h-596z" />
<glyph unicode="&#xe977;" glyph-name="comment" data-tags="comment" d="M768 490.002v86h-512v-86h512zM768 362.002v86h-512v-86h512zM768 234.002v86h-512v-86h512zM938 662.002v-768l-170 170h-598q-34 0-59 26t-25 60v512q0 34 25 59t59 25h684q34 0 59-25t25-59z" />
<glyph unicode="&#xe978;" glyph-name="contacts" data-tags="contacts" d="M726 106.002v64q0 48-73 78t-141 30-141-30-73-78v-64h428zM512 544.002q-40 0-68-28t-28-68 28-68 68-28 68 28 28 68-28 68-68 28zM854 662.002q34 0 59-26t25-60v-512q0-34-25-60t-59-26h-684q-34 0-59 26t-25 60v512q0 34 25 60t59 26h684zM170-191.998v86h684v-86h-684zM854 832.002v-86h-684v86h684z" />
<glyph unicode="&#xe979;" glyph-name="dialer_sip" data-tags="dialer_sip" d="M854 170.002q18 0 30-12t12-30v-150q0-18-12-30t-30-12q-300 0-513 213t-213 513q0 18 12 30t30 12h150q18 0 30-12t12-30v-2q0-82 24-150 8-26-10-44l-94-94q40-76 123-159t159-123l94 94q14 14 30 14 6 0 14-4 72-24 152-24zM854 618.002v44h-44v-44h44zM768 704.002h128v-128h-86v-86h-42v214zM640 618.002v-128h-128v44h86v42h-86v128h128v-42h-86v-44h86zM726 704.002v-214h-44v214h44z" />
<glyph unicode="&#xe97a;" glyph-name="dialpad" data-tags="dialpad" d="M512 790.002q34 0 60-26t26-60-26-60-60-26-60 26-26 60 26 60 60 26zM512 534.002q34 0 60-26t26-60-26-60-60-26-60 26-26 60 26 60 60 26zM768 534.002q34 0 60-26t26-60-26-60-60-26-60 26-26 60 26 60 60 26zM768 278.002q34 0 60-26t26-60-26-60-60-26-60 26-26 60 26 60 60 26zM512 278.002q34 0 60-26t26-60-26-60-60-26-60 26-26 60 26 60 60 26zM768 618.002q-34 0-60 26t-26 60 26 60 60 26 60-26 26-60-26-60-60-26zM256 278.002q34 0 60-26t26-60-26-60-60-26-60 26-26 60 26 60 60 26zM256 534.002q34 0 60-26t26-60-26-60-60-26-60 26-26 60 26 60 60 26zM256 790.002q34 0 60-26t26-60-26-60-60-26-60 26-26 60 26 60 60 26zM512 22.002q34 0 60-26t26-60-26-60-60-26-60 26-26 60 26 60 60 26z" />
<glyph unicode="&#xe97b;" glyph-name="email" data-tags="email, mail, markunread, local_post_office" d="M854 490.002v86l-342-214-342 214v-86l342-212zM854 662.002q34 0 59-26t25-60v-512q0-34-25-60t-59-26h-684q-34 0-59 26t-25 60v512q0 34 25 60t59 26h684z" />
<glyph unicode="&#xe97c;" glyph-name="forum" data-tags="forum, question_answer" d="M726 320.002q0-18-13-30t-31-12h-426l-170-172v598q0 18 12 30t30 12h554q18 0 31-12t13-30v-384zM896 576.002q18 0 30-12t12-30v-640l-170 170h-470q-18 0-30 12t-12 30v86h554v384h86z" />
<glyph unicode="&#xe97d;" glyph-name="import_export" data-tags="import_export" d="M682 106.002h128l-170-170-170 170h128v300h84v-300zM384 704.002l170-170h-128v-300h-84v300h-128z" />
<glyph unicode="&#xe97e;" glyph-name="invert_colors_off" data-tags="invert_colors_off" d="M512 614.002l-98-96-60 60 158 158 242-242q76-76 94-183t-26-201l-310 308v196zM512-3.998v206l-204 204q-52-68-52-154 0-44 22-96t54-84q76-76 180-76zM882-57.998l14-16-54-54-116 116q-94-76-214-76-58 0-129 29t-113 71-71 112-29 128q0 50 22 114t54 102l-118 118 54 54q598-598 700-698z" />
<glyph unicode="&#xe97f;" glyph-name="live_help" data-tags="live_help" d="M642 394.002q40 40 40 96 0 70-50 121t-120 51-120-51-50-121h84q0 34 26 60t60 26 60-26 26-60-26-60l-52-54q-50-54-50-120v-22h84q0 68 50 122zM554 64.002v86h-84v-86h84zM810 746.002q34 0 60-25t26-59v-598q0-34-26-60t-60-26h-170l-128-128-128 128h-170q-36 0-61 25t-25 61v598q0 36 25 60t61 24h596z" />
<glyph unicode="&#xe980;" glyph-name="location_off" data-tags="location_off" d="M500 342.002q218-216 354-352l-54-54-144 142q-32-48-68-94t-56-68l-20-22q-12 14-32 37t-72 92-91 134-71 147-32 144q0 22 8 66l-136 136 54 54 356-356zM512 554.002q-46 0-78-36l-138 136q36 38 100 65t116 27q124 0 211-87t87-211q0-96-72-234l-154 156q34 30 34 78 0 44-31 75t-75 31z" />
<glyph unicode="&#xe981;" glyph-name="location_on" data-tags="location_on, place, room" d="M512 342.002q44 0 75 31t31 75-31 75-75 31-75-31-31-75 31-75 75-31zM512 746.002q124 0 211-87t87-211q0-62-31-142t-75-150-87-131-73-97l-32-34q-12 14-32 37t-72 92-91 134-71 147-32 144q0 124 87 211t211 87z" />
<glyph unicode="&#xe982;" glyph-name="message" data-tags="message" d="M768 490.002v86h-512v-86h512zM768 362.002v86h-512v-86h512zM768 234.002v86h-512v-86h512zM854 746.002q34 0 59-25t25-59v-512q0-34-25-60t-59-26h-598l-170-170v768q0 34 25 59t59 25h684z" />
<glyph unicode="&#xe983;" glyph-name="chat_bubble" data-tags="chat_bubble" d="M854 746.002q34 0 59-25t25-59v-512q0-34-25-60t-59-26h-598l-170-170v768q0 34 25 59t59 25h684z" />
<glyph unicode="&#xe984;" glyph-name="chat_bubble_outline" data-tags="chat_bubble_outline" d="M854 150.002v512h-684v-598l86 86h598zM854 746.002q34 0 59-25t25-59v-512q0-34-25-60t-59-26h-598l-170-170v768q0 34 25 59t59 25h684z" />
<glyph unicode="&#xe985;" glyph-name="no_sim" data-tags="no_sim, signal_cellular_no_sim" d="M156 666.002l746-744-56-56-80 82q-24-12-40-12h-428q-34 0-59 26t-25 60v478l-112 112zM810 618.002v-498l-484 484 100 100h300q34 0 59-26t25-60z" />
<glyph unicode="&#xe986;" glyph-name="phone" data-tags="phone, local_phone" d="M282 372.002q96-186 282-282l94 94q20 20 44 10 72-24 152-24 18 0 30-12t12-30v-150q0-18-12-30t-30-12q-300 0-513 213t-213 513q0 18 12 30t30 12h150q18 0 30-12t12-30q0-80 24-152 8-26-10-44z" />
<glyph unicode="&#xe987;" glyph-name="portable_wifi_off" data-tags="portable_wifi_off" d="M140 726.002l42-44 714-714-54-54-320 322h-2l-8-2q-34 0-60 26t-26 60l2 8-68 68q-18-36-18-76 0-98 84-148l-42-74q-58 34-93 93t-35 129q0 76 40 138l-60 62q-66-92-66-200 0-92 46-171t124-125l-42-74q-98 56-155 155t-57 215q0 148 88 262l-88 90zM512 662.002q-86 0-160-40l-62 62q100 62 222 62 176 0 301-125t125-301q0-120-62-222l-64 62q42 78 42 160 0 140-101 241t-241 101zM750 224.002l-70 70q2 8 2 26 0 70-50 120t-120 50q-18 0-26-2l-70 70q44 18 96 18 106 0 181-75t75-181q0-52-18-96z" />
<glyph unicode="&#xe988;" glyph-name="contact_phone" data-tags="contact_phone" d="M762 234.002q-16 42-16 86t16 86h70l64 84-84 86q-36-28-71-78t-47-92-12-86 12-86 47-92 71-78l84 86-64 84h-70zM598 64.002v42q0 58-88 95t-168 37-168-37-88-95v-42h512zM342 576.002q-52 0-90-38t-38-90 38-90 90-38 90 38 38 90-38 90-90 38zM938 704.002q34 0 60-26t26-60v-596q0-34-26-60t-60-26h-852q-34 0-60 26t-26 60v596q0 34 26 60t60 26h852z" />
<glyph unicode="&#xe989;" glyph-name="contact_mail" data-tags="contact_mail" d="M938 320.002v256h-340v-256h340zM598 64.002v42q0 58-88 95t-168 37-168-37-88-95v-42h512zM342 576.002q-52 0-90-38t-38-90 38-90 90-38 90 38 38 90-38 90-90 38zM938 704.002q34 0 60-26t26-60v-596q0-34-26-60t-60-26h-852q-34 0-60 26t-26 60v596q0 34 26 60t60 26h852zM896 490.002l-128-84-128 84v44l128-86 128 86v-44z" />
<glyph unicode="&#xe98a;" glyph-name="ring_volume" data-tags="ring_volume" d="M274 414.002q-148 148-152 150l60 62 152-152zM554 746.002v-212h-84v212h84zM902 564.002l-152-150-60 60 152 152zM1012 120.002q12-12 12-30t-12-30l-106-106q-12-12-30-12t-30 12q-56 52-114 80-24 10-24 38v132q-92 30-196 30t-196-30v-132q0-30-24-40-64-30-114-78-12-12-30-12t-30 12l-106 106q-12 12-12 30t12 30q210 200 500 200 120 0 266-59t234-141z" />
<glyph unicode="&#xe98b;" glyph-name="speaker_phone" data-tags="speaker_phone" d="M640-21.998v342h-256v-342h256zM634 404.002q20 0 34-14t14-34v-414q0-20-14-34t-34-14h-244q-20 0-34 14t-14 34v414q0 20 14 35t34 15zM512 790.002q80 0 176-40t154-98l-60-60q-112 112-270 112t-270-112l-60 60q138 138 330 138zM298 530.002q88 88 214 88t214-88l-62-60q-62 62-152 62t-152-62z" />
<glyph unicode="&#xe98c;" glyph-name="stay_current_landscape" data-tags="stay_current_landscape, stay_primary_landscape" d="M810 534.002h-596v-428h596v428zM44 534.002q0 34 25 59t59 25h768q34 0 60-25t26-59v-428q0-34-26-59t-60-25h-768q-34 0-60 25t-26 59z" />
<glyph unicode="&#xe98d;" glyph-name="stay_current_portrait" data-tags="stay_current_portrait, stay_primary_portrait, smartphone" d="M726 22.002v596h-428v-596h428zM726 788.002q34 0 59-25t25-59v-768q0-34-25-60t-59-26h-428q-34 0-59 26t-25 60v768q0 34 25 60t59 26z" />
<glyph unicode="&#xe98e;" glyph-name="swap_calls" data-tags="swap_calls" d="M768 662.002l170-172h-128v-298q0-70-50-120t-120-50-120 50-50 120v298q0 34-26 60t-60 26-60-26-26-60v-298h128l-170-170-170 170h128v298q0 70 50 121t120 51 120-51 50-121v-298q0-34 26-60t60-26 60 26 26 60v298h-128z" />
<glyph unicode="&#xe98f;" glyph-name="textsms" data-tags="textsms, sms" d="M726 362.002v86h-86v-86h86zM554 362.002v86h-84v-86h84zM384 362.002v86h-86v-86h86zM854 746.002q34 0 59-25t25-59v-512q0-34-25-60t-59-26h-598l-170-170v768q0 34 25 59t59 25h684z" />
<glyph unicode="&#xe990;" glyph-name="voicemail" data-tags="voicemail" d="M790 192.002q62 0 105 44t43 106-43 105-105 43-106-43-44-105 44-106 106-44zM234 192.002q62 0 106 44t44 106-44 105-106 43-105-43-43-105 43-106 105-44zM790 576.002q98 0 166-68t68-166-68-167-166-69h-556q-98 0-166 69t-68 167 68 166 166 68 167-68 69-166q0-86-54-150h192q-54 64-54 150 0 98 69 166t167 68z" />
<glyph unicode="&#xe991;" glyph-name="vpn_key" data-tags="vpn_key" d="M298 234.002q34 0 60 26t26 60-26 60-60 26-59-26-25-60 25-60 59-26zM540 406.002h442v-172h-86v-170h-170v170h-186q-26-70-97-120t-145-50q-106 0-181 75t-75 181 75 181 181 75q74 0 145-50t97-120z" />
<glyph unicode="&#xe992;" glyph-name="phonelink_erase" data-tags="phonelink_erase" d="M810 790.002q34 0 60-26t26-60v-768q0-34-26-60t-60-26h-426q-34 0-60 26t-26 60v128h86v-86h426v684h-426v-86h-86v128q0 34 26 60t60 26h426zM554 482.002l-170-170 170-172-42-42-170 170-172-170-42 42 170 172-170 170 42 42 172-170 170 170z" />
<glyph unicode="&#xe993;" glyph-name="phonelink_lock" data-tags="phonelink_lock" d="M406 362.002v64q0 24-19 40t-45 16-45-16-19-40v-64h128zM460 362.002q20 0 36-16t16-38v-150q0-20-17-36t-39-16h-234q-20 0-36 17t-16 39v150q0 20 16 35t36 15v64q0 44 37 76t83 32 82-32 36-76v-64zM810 790.002q34 0 60-26t26-60v-768q0-34-26-60t-60-26h-426q-34 0-60 26t-26 60v128h86v-86h426v684h-426v-86h-86v128q0 34 26 60t60 26h426z" />
<glyph unicode="&#xe994;" glyph-name="phonelink_ring" data-tags="phonelink_ring" d="M598-21.998v684h-428v-684h428zM598 790.002q34 0 59-26t25-60v-768q0-34-25-60t-59-26h-428q-34 0-59 26t-25 60v768q0 34 25 60t59 26h428zM768 414.002q40-42 40-94t-40-90l-42 44q36 50 0 98zM858 504.002q80-76 80-183t-80-181l-44 44q58 62 58 141t-58 135z" />
<glyph unicode="&#xe995;" glyph-name="phonelink_setup" data-tags="phonelink_setup" d="M768 788.002q34 0 60-25t26-59v-768q0-34-26-60t-60-26h-426q-34 0-60 26t-26 60v128h86v-42h426v596h-426v-42h-86v128q0 34 26 60t60 26zM298 246.002q32 0 55 21t23 53-23 53-55 21-54-21-22-53 22-53 54-21zM462 300.002l46-36q8-8 4-14l-44-74q-4-8-14-4l-54 20q-16-10-38-20l-8-56q0-10-10-10h-88q-12 0-12 10l-8 56q-22 10-38 20l-54-20q-10-4-14 4l-42 74q-2 2-1 7t3 7l46 36q0 2-1 9t-1 11 1 10 1 10l-46 36q-6 6-4 14l44 74q4 8 14 4l54-20q16 10 38 20l8 56q0 10 10 10h88q10 0 10-10l10-56q8-4 36-22l56 22q8 4 12-4l44-74q2-2 1-7t-3-7l-46-36q0-2 1-9t1-11-1-11-1-9z" />
<glyph unicode="&#xe996;" glyph-name="present_to_all" data-tags="present_to_all" d="M426 320.002h-84l170 170 170-170h-84v-170h-172v170zM896 20.002v600h-768v-600h768zM896 704.002q36 0 61-25t25-61v-596q0-36-25-61t-61-25h-768q-36 0-61 25t-25 61v596q0 36 25 61t61 25h768z" />
<glyph unicode="&#xe997;" glyph-name="import_contacts" data-tags="import_contacts" d="M896 42.002v492q-66 20-150 20-130 0-234-64v-490q104 64 234 64 78 0 150-22zM746 640.002q152 0 236-64v-622q0-8-7-15t-15-7q-6 0-10 2-82 44-204 44-130 0-234-64-86 64-234 64-108 0-204-46-2 0-5-1t-5-1q-8 0-15 6t-7 14v626q86 64 236 64 148 0 234-64 86 64 234 64z" />
<glyph unicode="&#xe998;" glyph-name="mail_outline" data-tags="mail_outline" d="M512 362.002l342 214h-684zM854 64.002v426l-342-212-342 212v-426h684zM854 662.002q34 0 59-26t25-60v-512q0-34-25-60t-59-26h-684q-34 0-59 26t-25 60v512q0 34 25 60t59 26h684z" />
<glyph unicode="&#xe999;" glyph-name="screen_share" data-tags="screen_share" d="M554 214.002l172 160-172 160v-92q-210-30-256-250 86 116 256 116v-94zM854 64.002h170v-86h-1024v86h170q-36 0-60 25t-24 61v426q0 36 24 61t60 25h684q36 0 60-25t24-61v-426q0-34-25-60t-59-26z" />
<glyph unicode="&#xe99a;" glyph-name="stop_screen_share" data-tags="stop_screen_share" d="M298 192.002q58 80 156 104l-68 68q-64-62-88-172zM102 758.002l842-842-54-54-116 116h-774v86h170q-36 0-60 24t-24 60v428q0 38 28 62l-66 66zM938 148.002q0-50-44-74l-236 236 68 64-172 158v-90q-4-2-11-2t-11-2l-224 222h546q36 0 60-24t24-60v-428zM906 64.002h118v-86h-34z" />
<glyph unicode="&#xe99b;" glyph-name="call_missed_outgoing" data-tags="call_missed_outgoing" d="M128 474.002l60 60 324-324 238 238h-196v86h342v-342h-86v196l-298-298z" />
<glyph unicode="&#xe99c;" glyph-name="rss_feed" data-tags="rss_feed" d="M170 402.002q176 0 300-124t124-300h-122q0 124-89 213t-213 89v122zM170 642.002q274 0 469-195t195-469h-120q0 226-159 385t-385 159v120zM170 72.002q0 38 27 65t67 27 66-26 26-66-27-67-65-27q-40 0-67 27t-27 67z" />
<glyph unicode="&#xe99d;" glyph-name="alternate_email" data-tags="alternate_email" d="M512 192.002q52 0 90 38t38 90-38 90-90 38-90-38-38-90 38-90 90-38zM512 746.002q176 0 301-125t125-301v-62q0-64-43-108t-105-44q-78 0-126 64-64-64-152-64t-151 63-63 151 63 151 151 63 151-63 63-151v-62q0-26 19-46t45-20 45 20 19 46v62q0 140-101 241t-241 101-241-101-101-241 101-241 241-101h214v-84h-214q-176 0-301 125t-125 301 125 301 301 125z" />
<glyph unicode="&#xe99e;" glyph-name="mobile_screen_share" data-tags="mobile_screen_share" d="M546 268.002q-134 0-204-94 40 180 204 202v72l136-128-136-126v74zM726 22.002v596h-428v-596h428zM726 788.002q34 0 59-25t25-59v-768q0-34-25-60t-59-26h-428q-34 0-59 26t-25 60v768q0 34 25 60t59 26z" />
<glyph unicode="&#xe99f;" glyph-name="add_call" data-tags="add_call" d="M896 576.002v-86h-128v-128h-86v128h-128v86h128v128h86v-128h128zM854 170.002q18 0 30-12t12-30v-150q0-18-12-30t-30-12q-300 0-513 213t-213 513q0 18 12 30t30 12h150q18 0 30-12t12-30q0-80 24-152 8-26-10-44l-94-94q94-184 282-282l94 94q18 18 44 10 72-24 152-24z" />
<glyph unicode="&#xe9a0;" glyph-name="cancel_presentation" data-tags="cancel_presentation" d="M622 490.002l60-60-110-110 110-110-60-60-110 110-110-110-60 60 110 110-110 110 60 60 110-110zM896 704.002q34 0 60-26t26-60v-596q0-34-26-60t-60-26h-768q-34 0-60 26t-26 60v596q0 34 26 60t60 26h768zM896 18.002v600h-768v-600h768z" />
<glyph unicode="&#xe9a1;" glyph-name="pause_presentation" data-tags="pause_presentation" d="M554 490.002h86v-340h-86v340zM384 490.002h86v-340h-86v340zM896 704.002q34 0 60-26t26-60v-596q0-34-26-60t-60-26h-768q-34 0-60 26t-26 60v596q0 34 26 60t60 26h768zM896 18.002v600h-768v-600h768z" />
<glyph unicode="&#xe9a2;" glyph-name="unsubscribe" data-tags="unsubscribe" d="M512 384.002l298 150v84l-298-148-298 148v-84zM578 106.002h-364q-34 0-60 26t-26 60v426q0 34 26 60t60 26h596q34 0 60-26t26-60v-306q-54 30-106 30-88 0-151-63t-63-151q0-4 1-11t1-11zM874 106.002v44h-170v-44h170zM790 278.002q62 0 105-44t43-106-43-106-105-44-106 44-44 106 44 106 106 44z" />
<glyph unicode="&#xe9a3;" glyph-name="cell_wifi" data-tags="cell_wifi" d="M278 470.002q32 32 89 55t103 23 103-23 89-55l-56-56q-58 58-138 58t-136-58zM386 360.002q34 34 84 34 48 0 82-34l-82-82zM168 578.002q124 124 302 124t302-124l-56-54q-102 102-247 102t-247-102zM938-105.998h-682l682 682v-682z" />
<glyph unicode="&#xe9a4;" glyph-name="sentiment_satisfied_alt" data-tags="sentiment_satisfied_alt" d="M512 86.002q-74 0-133 41t-85 107h70q50-84 148-84t148 84h70q-26-66-85-107t-133-41zM512-21.998q140 0 241 101t101 241-101 241-241 101-241-101-101-241 101-241 241-101zM512 746.002q176 0 301-125t125-301-125-301-301-125-301 125-125 301 125 301 301 125zM362 362.002q-26 0-45 19t-19 45 19 45 45 19 45-19 19-45-19-45-45-19zM662 362.002q-26 0-45 19t-19 45 19 45 45 19 45-19 19-45-19-45-45-19z" />
<glyph unicode="&#xe9a5;" glyph-name="list_alt" data-tags="list_alt" d="M298 192.002h86v-86h-86v86zM298 362.002h86v-84h-86v84zM298 534.002h86v-86h-86v86zM470 192.002h256v-86h-256v86zM470 362.002h256v-84h-256v84zM470 534.002h256v-86h-256v86zM858 704.002q14 0 26-11t12-27v-692q0-14-12-26t-26-12h-692q-16 0-27 12t-11 26v692q0 38 38 38h692zM810 618.002h-596v-596h596v596z" />
<glyph unicode="&#xe9a6;" glyph-name="domain_disabled" data-tags="domain_disabled" d="M512 22.002h170l-84 84h-86v-84zM426 192.002v86h-84v-86h84zM426 22.002v84h-84v-84h84zM256 362.002v86h-86v-86h86zM256 192.002v86h-86v-86h86zM256 22.002v84h-86v-84h86zM56 756.002l896-892-56-56-128 128h-682v682l-82 82zM682 362.002h86v-84h-86v84zM342 618.002v-38l-124 124h294v-170h426v-552l-84 86v380h-342v-38l-124 124h38v84h-84z" />
<glyph unicode="&#xe9a7;" glyph-name="lightbulb" data-tags="lightbulb" d="M512 746.002q124 0 211-87t87-211q0-150-128-244v-98q0-18-12-30t-30-12h-256q-18 0-30 12t-12 30v98q-128 88-128 244 0 124 87 211t211 87zM384-63.998v42h256v-42q0-18-12-30t-30-12h-172q-18 0-30 12t-12 30z" />
<glyph unicode="&#xe9a8;" glyph-name="add" data-tags="add" d="M831.332 360.312h-274.326v-274.326h-90.013v274.326h-274.326v90.013h274.326v274.326h90.013v-274.326h274.326v-90.013z" />
<glyph unicode="&#xe9a9;" glyph-name="add_box" data-tags="add_box" d="M726 278.002v84h-172v172h-84v-172h-172v-84h172v-172h84v172h172zM810 704.002q34 0 60-26t26-60v-596q0-34-26-60t-60-26h-596q-36 0-61 25t-25 61v596q0 36 25 61t61 25h596z" />
<glyph unicode="&#xe9aa;" glyph-name="add_circle" data-tags="add_circle" d="M726 278.002v84h-172v172h-84v-172h-172v-84h172v-172h84v172h172zM512 746.002q176 0 301-125t125-301-125-301-301-125-301 125-125 301 125 301 301 125z" />
<glyph unicode="&#xe9ab;" glyph-name="add_circle_outline" data-tags="add_circle_outline, control_point" d="M512-21.998q140 0 241 101t101 241-101 241-241 101-241-101-101-241 101-241 241-101zM512 746.002q176 0 301-125t125-301-125-301-301-125-301 125-125 301 125 301 301 125zM554 534.002v-172h172v-84h-172v-172h-84v172h-172v84h172v172h84z" />
<glyph unicode="&#xe9ac;" glyph-name="archive" data-tags="archive" d="M218 618.002h588l-40 44h-512zM512 86.002l234 234h-148v86h-172v-86h-148zM876 608.002q20-24 20-54v-532q0-34-26-60t-60-26h-596q-34 0-60 26t-26 60v532q0 30 20 54l58 72q20 24 50 24h512q30 0 50-24z" />
<glyph unicode="&#xe9ad;" glyph-name="backspace" data-tags="backspace" d="M810 166.002l-152 154 152 154-60 60-152-154-154 154-60-60 154-154-154-154 60-60 154 154 152-154zM938 704.002q34 0 60-26t26-60v-596q0-34-26-60t-60-26h-640q-40 0-68 38l-230 346 230 346q28 38 68 38h640z" />
<glyph unicode="&#xe9ae;" glyph-name="block" data-tags="block" d="M512-21.998q140 0 241 101t101 241q0 48-21 110t-51 100l-480-480q90-72 210-72zM170 320.002q0-48 21-110t51-100l480 480q-90 72-210 72-140 0-241-101t-101-241zM512 746.002q176 0 301-125t125-301-125-301-301-125-301 125-125 301 125 301 301 125z" />
<glyph unicode="&#xe9af;" glyph-name="clear" data-tags="clear, close" d="M810 558.002l-238-238 238-238-60-60-238 238-238-238-60 60 238 238-238 238 60 60 238-238 238 238z" />
<glyph unicode="&#xe9b0;" glyph-name="content_copy" data-tags="content_copy" d="M810-63.998v598h-468v-598h468zM810 618.002q34 0 60-25t26-59v-598q0-34-26-60t-60-26h-468q-34 0-60 26t-26 60v598q0 34 26 59t60 25h468zM682 790.002v-86h-512v-598h-84v598q0 34 25 60t59 26h512z" />
<glyph unicode="&#xe9b1;" glyph-name="content_cut" data-tags="content_cut" d="M810 704.002h128v-42l-298-300-86 86zM512 298.002q22 0 22 22t-22 22-22-22 22-22zM256-21.998q34 0 60 25t26 61-26 61-60 25-60-25-26-61 26-61 60-25zM256 490.002q34 0 60 25t26 61-26 61-60 25-60-25-26-61 26-61 60-25zM412 506.002l526-528v-42h-128l-298 298-100-100q14-30 14-70 0-70-50-120t-120-50-120 50-50 120 50 120 120 50q40 0 70-14l100 100-100 100q-30-14-70-14-70 0-120 50t-50 120 50 120 120 50 120-50 50-120q0-40-14-70z" />
<glyph unicode="&#xe9b2;" glyph-name="content_paste" data-tags="content_paste" d="M810-21.998v684h-84v-128h-428v128h-84v-684h596zM512 746.002q-18 0-30-12t-12-30 12-30 30-12 30 12 12 30-12 30-30 12zM810 746.002q34 0 60-25t26-59v-684q0-34-26-59t-60-25h-596q-34 0-60 25t-26 59v684q0 34 26 59t60 25h178q14 38 46 62t74 24 74-24 46-62h178z" />
<glyph unicode="&#xe9b3;" glyph-name="create" data-tags="create, mode_edit, edit" d="M884 532.002l-78-78-160 160 78 78q12 12 30 12t30-12l100-100q12-12 12-30t-12-30zM128 96.002l472 472 160-160-472-472h-160v160z" />
<glyph unicode="&#xe9b4;" glyph-name="drafts" data-tags="drafts" d="M512 278.002l352 220-352 206-352-206zM938 490.002v-426q0-34-25-60t-59-26h-684q-34 0-59 26t-25 60v426q0 50 40 74l386 226 386-226q40-24 40-74z" />
<glyph unicode="&#xe9b5;" glyph-name="filter_list" data-tags="filter_list" d="M256 278.002v84h512v-84h-512zM128 576.002h768v-86h-768v86zM426 64.002v86h172v-86h-172z" />
<glyph unicode="&#xe9b6;" glyph-name="flag" data-tags="flag, assistant_photo" d="M614 576.002h240v-426h-300l-16 84h-240v-298h-84v726h384z" />
<glyph unicode="&#xe9b7;" glyph-name="forward" data-tags="forward" d="M512 490.002v172l342-342-342-342v172h-342v340h342z" />
<glyph unicode="&#xe9b8;" glyph-name="gesture" data-tags="gesture" d="M592 40.002q28 0 56 37t36 113q-60-16-92-54t-32-64q0-14 10-23t22-9zM196 538.002l-74 72q20 24 36 40 54 54 116 54 38 0 73-30t35-92q0-60-56-140-56-78-78-150-12-34-7-58t21-24q18 0 48 36 44 44 98 116 96 120 210 120 84 0 125-55t47-123h106v-106h-104q-12-138-74-200t-128-62q-56 0-96 39t-40 93q0 66 60 138t170 92q-2 16-3 22t-6 19-12 19-21 11-34 5q-56 0-174-146-34-42-47-57t-37-35-46-26q-70-22-120 26t-50 120q0 30 11 66t29 70 34 61 31 49 17 24q34 56 12 64-14 6-72-52z" />
<glyph unicode="&#xe9b9;" glyph-name="inbox" data-tags="inbox" d="M810 192.002v426h-598v-426h172q0-52 38-90t90-38 90 38 38 90h170zM810 704.002q36 0 61-25t25-61v-596q0-34-26-60t-60-26h-598q-36 0-60 25t-24 61v596q0 36 24 61t60 25h598z" />
<glyph unicode="&#xe9ba;" glyph-name="link" data-tags="link, insert_link" d="M726 534.002q88 0 150-63t62-151-62-151-150-63h-172v82h172q54 0 93 39t39 93-39 93-93 39h-172v82h172zM342 278.002v84h340v-84h-340zM166 320.002q0-54 39-93t93-39h172v-82h-172q-88 0-150 63t-62 151 62 151 150 63h172v-82h-172q-54 0-93-39t-39-93z" />
<glyph unicode="&#xe9bb;" glyph-name="redo" data-tags="redo" d="M786 380.002l152 154v-384h-384l156 154q-96 80-220 80-102 0-197-68t-127-166l-100 32q44 136 161 222t263 86q170 0 296-110z" />
<glyph unicode="&#xe9bc;" glyph-name="remove" data-tags="remove" d="M810 278.002h-596v84h596v-84z" />
<glyph unicode="&#xe9bd;" glyph-name="remove_circle" data-tags="remove_circle, do_not_disturb_on" d="M726 278.002v84h-428v-84h428zM512 746.002q176 0 301-125t125-301-125-301-301-125-301 125-125 301 125 301 301 125z" />
<glyph unicode="&#xe9be;" glyph-name="remove_circle_outline" data-tags="remove_circle_outline" d="M512-21.998q140 0 241 101t101 241-101 241-241 101-241-101-101-241 101-241 241-101zM512 746.002q176 0 301-125t125-301-125-301-301-125-301 125-125 301 125 301 301 125zM298 362.002h428v-84h-428v84z" />
<glyph unicode="&#xe9bf;" glyph-name="reply" data-tags="reply" d="M426 448.002q208-30 321-159t149-311q-154 218-470 218v-174l-298 298 298 298v-170z" />
<glyph unicode="&#xe9c0;" glyph-name="reply_all" data-tags="reply_all" d="M554 448.002q208-30 321-159t149-311q-154 218-470 218v-174l-298 298 298 298v-170zM298 490.002l-170-170 170-170v-128l-298 298 298 298v-128z" />
<glyph unicode="&#xe9c1;" glyph-name="report" data-tags="report" d="M554 278.002v256h-84v-256h84zM512 94.002q22 0 39 17t17 39-17 38-39 16-39-16-17-38 17-39 39-17zM672 704.002l224-224v-320l-224-224h-320l-224 224v320l224 224h320z" />
<glyph unicode="&#xe9c2;" glyph-name="save" data-tags="save" d="M640 448.002v170h-426v-170h426zM512 22.002q52 0 90 38t38 90-38 90-90 38-90-38-38-90 38-90 90-38zM726 704.002l170-170v-512q0-34-26-60t-60-26h-596q-36 0-61 25t-25 61v596q0 36 25 61t61 25h512z" />
<glyph unicode="&#xe9c3;" glyph-name="select_all" data-tags="select_all" d="M384 448.002v-256h256v256h-256zM298 106.002v428h428v-428h-428zM640 618.002v86h86v-86h-86zM640-63.998v86h86v-86h-86zM810 106.002v86h86v-86h-86zM810 448.002v86h86v-86h-86zM810-63.998v86h86q0-34-26-60t-60-26zM810 278.002v84h86v-84h-86zM470-63.998v86h84v-86h-84zM384 704.002v-86h-86v86h86zM128 106.002v86h86v-86h-86zM214-63.998q-34 0-60 26t-26 60h86v-86zM810 704.002q34 0 60-26t26-60h-86v86zM554 704.002v-86h-84v86h84zM128 448.002v86h86v-86h-86zM298-63.998v86h86v-86h-86zM128 278.002v84h86v-84h-86zM128 618.002q0 34 26 60t60 26v-86h-86z" />
<glyph unicode="&#xe9c4;" glyph-name="send" data-tags="send" d="M86-63.998v298l640 86-640 86v298l896-384z" />
<glyph unicode="&#xe9c5;" glyph-name="sort" data-tags="sort" d="M128 278.002v84h512v-84h-512zM128 576.002h768v-86h-768v86zM128 64.002v86h256v-86h-256z" />
<glyph unicode="&#xe9c6;" glyph-name="text_format" data-tags="text_format" d="M512 576.002l-80-214h160zM406 286.002l-40-94h-88l202 470h64l202-470h-88l-40 94h-212zM214 106.002h596v-84h-596v84z" />
<glyph unicode="&#xe9c7;" glyph-name="undo" data-tags="undo" d="M534 490.002q146 0 262-86t162-222l-100-32q-34 104-123 169t-201 65q-124 0-220-80l156-154h-384v384l152-154q126 110 296 110z" />
<glyph unicode="&#xe9c8;" glyph-name="font_download" data-tags="font_download" d="M680 42.002h90l-218 556h-80l-218-556h90l48 128h240zM854 746.002q34 0 59-25t25-59v-684q0-34-25-59t-59-25h-684q-34 0-59 25t-25 59v684q0 34 25 59t59 25h684zM424 256.002l88 236 88-236h-176z" />
<glyph unicode="&#xe9c9;" glyph-name="move_to_inbox" data-tags="move_to_inbox" d="M682 406.002l-170-172-170 172h84v128h172v-128h84zM810 192.002v426h-598v-426h172q0-52 38-90t90-38 90 38 38 90h170zM810 704.002q34 0 60-26t26-60v-596q0-34-26-60t-60-26h-598q-36 0-60 25t-24 61v596q0 36 24 61t60 25h598z" />
<glyph unicode="&#xe9ca;" glyph-name="unarchive" data-tags="unarchive" d="M218 618.002h588l-40 44h-512zM512 426.002l-234-234h148v-86h172v86h148zM876 610.002q20-24 20-56v-532q0-34-26-60t-60-26h-596q-36 0-61 25t-25 61v532q0 32 20 56l58 70q20 24 50 24h512q30 0 50-24z" />
<glyph unicode="&#xe9cb;" glyph-name="next_week" data-tags="next_week" d="M470 42.002l170 172-170 170-44-42 128-128-128-128zM426 618.002v-84h172v84h-172zM598 704.002q34 0 59-25t25-61v-84h172q34 0 59-26t25-60v-470q0-34-25-59t-59-25h-684q-34 0-59 25t-25 59v470q0 34 25 60t59 26h172v84q0 34 25 60t59 26h172z" />
<glyph unicode="&#xe9cc;" glyph-name="weekend" data-tags="weekend" d="M768 618.002q34 0 60-25t26-59v-92q-38-14-62-46t-24-74v-88h-512v88q0 42-24 74t-62 46v92q0 34 26 59t60 25h512zM896 406.002q34 0 60-26t26-60v-214q0-34-26-59t-60-25h-768q-34 0-60 25t-26 59v214q0 34 26 60t60 26 60-26 26-60v-128h596v128q0 34 26 60t60 26z" />
<glyph unicode="&#xe9cd;" glyph-name="delete_sweep" data-tags="delete_sweep" d="M598 618.002v-84h-512v84h128l42 44h170l44-44h128zM128 64.002v426h426v-426q0-34-25-60t-59-26h-256q-34 0-60 26t-26 60zM640 320.002h256v-86h-256v86zM640 490.002h298v-84h-298v84zM640 150.002h170v-86h-170v86z" />
<glyph unicode="&#xe9ce;" glyph-name="low_priority" data-tags="low_priority" d="M86 342.002q0 114 81 195t195 81h150v-84h-150q-80 0-136-56t-56-136 56-136 136-56h22v84l128-128-128-128v86h-22q-114 0-195 82t-81 196zM598 150.002h340v-86h-340v86zM598 384.002h340v-86h-340v86zM598 618.002h340v-84h-340v84z" />
<glyph unicode="&#xe9cf;" glyph-name="outlined_flag" data-tags="outlined_flag" d="M768 234.002v256h-214l-42 86h-214v-256h256l44-86h170zM598 576.002h256v-426h-300l-42 84h-214v-298h-84v726h340z" />
<glyph unicode="&#xe9d0;" glyph-name="link_off" data-tags="link_off" d="M86 650.002l54 54 714-714-54-54-172 170h-74v74l-96 98h-116v84h30l-88 88q-50-6-84-43t-34-87q0-54 39-93t93-39h172v-82h-172q-88 0-150 63t-62 151q0 60 38 118t94 80zM682 362.002v-84h-8l-84 84h92zM726 534.002q88 0 150-63t62-151q0-130-116-190l-62 62q42 10 70 46t28 82q0 54-39 93t-93 39h-172v82h172z" />
<glyph unicode="&#xe9d1;" glyph-name="report_off" data-tags="report_off" d="M512 94.002q22 0 39 17t17 39-17 38-39 16-39-16-17-38 17-39 39-17zM950-95.998l-54-54-154 156-70-70h-320l-224 224v320l70 70-156 154 54 54zM470 534.002v-40l-164 164 46 46h320l224-224v-320l-46-46-296 294v126h-84z" />
<glyph unicode="&#xe9d2;" glyph-name="save_alt" data-tags="save_alt" d="M554 292.002l112 110 60-60-214-214-214 214 60 60 112-110v412h84v-412zM810 320.002h86v-298q0-34-26-60t-60-26h-596q-34 0-60 26t-26 60v298h86v-298h596v298z" />
<glyph unicode="&#xe9d3;" glyph-name="ballot" data-tags="ballot" d="M298 234.002h128v-128h-128v128zM256 64.002h214v214h-214v-214zM298 534.002h128v-128h-128v128zM256 362.002h214v214h-214v-214zM810-63.998h-596q-34 0-60 26t-26 60v596q0 34 26 60t60 26h596q34 0 60-26t26-60v-596q0-34-26-60t-60-26zM554 128.002h214v86h-214v-86zM554 426.002h214v86h-214v-86z" />
<glyph unicode="&#xe9d4;" glyph-name="file_copy" data-tags="file_copy" d="M598 320.002h234l-234 234v-234zM640 618.002l256-256v-426q0-34-26-60t-60-26h-470q-34 0-59 26t-25 60v598q0 34 26 59t60 25h298zM682 790.002v-86h-512v-598h-84v598q0 34 25 60t59 26h512z" />
<glyph unicode="&#xe9d5;" glyph-name="how_to_reg" data-tags="how_to_reg" d="M660-41.998l-148 148 60 60 88-88 218 220 60-60zM470 320.002q-70 0-121 50t-51 120 51 121 121 51 120-51 50-121-50-120-120-50zM384 106.002l128-128h-384v86q0 76 117 123t225 47q30 0 42-2z" />
<glyph unicode="&#xe9d6;" glyph-name="how_to_vote" data-tags="how_to_vote" d="M544 734.002q12 12 30 12 22 0 30-12l212-212q12-12 12-30t-12-30l-272-270q-12-12-30-12t-30 12l-212 210q-12 12-12 30t12 30zM726 492.002l-152 152-210-212 150-150zM768 278.002l128-128v-172q0-36-25-60t-61-24h-598q-34 0-59 25t-25 59v172l128 128h36l84-86h-86l-76-86h596l-74 86h-82l84 86h30z" />
<glyph unicode="&#xe9d7;" glyph-name="waves" data-tags="waves" d="M726 486.002q58 0 126-34 48-24 86-24v-84q-58 0-126 34-52 26-86 26-36 0-88-26-68-34-126-34t-126 34q-52 26-88 26-34 0-86-26-68-34-126-34v84q38 0 86 24 68 34 126 34t126-34q48-24 88-24t88 24q68 34 126 34zM852 642.002q52-26 86-26v-82q-58 0-126 34-52 26-86 26-36 0-88-26-68-34-126-34t-126 34q-52 26-88 26-34 0-86-26-68-34-126-34v82q34 0 86 26 68 34 126 34t126-34q52-26 88-26t88 26q68 34 126 34t126-34zM726 296.002q58 0 126-34 48-24 86-24v-84q-58 0-126 34-52 26-86 26-36 0-88-26-68-34-126-34t-126 34q-52 26-88 26-34 0-86-26-68-34-126-34v84q38 0 86 24 68 34 126 34t126-34q48-24 88-24t88 24q68 34 126 34zM726 108.002q54 0 126-36 48-24 86-24v-84q-58 0-126 34-52 26-86 26-36 0-88-26-68-34-126-34t-126 34q-52 26-88 26-34 0-86-26-68-34-126-34v84q38 0 86 24 72 36 126 36t126-36q48-24 88-24t88 24q72 36 126 36z" />
<glyph unicode="&#xe9d8;" glyph-name="where_to_vote" data-tags="where_to_vote" d="M446 234.002l280 282-60 60-220-222-88 90-60-60zM512 746.002q124 0 211-87t87-211q0-62-31-142t-75-150-87-131-73-97l-32-34q-12 14-32 37t-72 92-91 134-71 147-32 144q0 124 87 211t211 87z" />
<glyph unicode="&#xe9d9;" glyph-name="add_link" data-tags="add_link" d="M810 320.002v-128h128v-86h-128v-128h-84v128h-128v86h128v128h84zM166 320.002q0-54 39-93t93-39h172v-82h-172q-88 0-150 63t-62 151 62 151 150 63h172v-82h-172q-54 0-93-39t-39-93zM858 320.002q0 54-39 93t-93 39h-172v82h172q88 0 150-63t62-151h-80zM342 362.002h340v-84h-340v84z" />
<glyph unicode="&#xe9da;" glyph-name="inventory" data-tags="inventory" d="M854 534.002v128h-684v-128h684zM640 234.002v86h-256v-86h256zM854 746.002q32 0 58-25t26-59v-130q0-48-42-72v-482q0-34-28-59t-58-25h-596q-30 0-58 25t-28 59v482q-42 24-42 72v130q0 34 26 59t58 25h684z" />
<glyph unicode="&#xe9db;" glyph-name="access_alarm" data-tags="access_alarm, alarm" d="M512-21.998q124 0 211 88t87 212-87 211-211 87-211-87-87-211 87-212 211-88zM512 662.002q160 0 272-113t112-271-112-271-272-113-272 113-112 271 112 271 272 113zM534 490.002v-224l170-100-32-52-202 120v256h64zM336 688.002l-196-164-54 64 196 164zM938 588.002l-54-66-196 166 54 64z" />
<glyph unicode="&#xe9dc;" glyph-name="access_alarms" data-tags="access_alarms" d="M512-21.998q124 0 211 88t87 212-87 211-211 87-211-87-87-211 87-212 211-88zM512 662.002q160 0 272-112t112-272-112-272-272-112-272 112-112 272 112 272 272 112zM534 490.002v-226l170-102-34-52-200 124v256h64zM338 686.002l-198-162-54 64 196 162zM938 588.002l-54-64-198 168 56 64z" />
<glyph unicode="&#xe9dd;" glyph-name="access_time" data-tags="access_time, query_builder, schedule" d="M534 534.002v-224l192-114-32-54-224 136v256h64zM512-21.998q140 0 241 101t101 241-101 241-241 101-241-101-101-241 101-241 241-101zM512 746.002q176 0 301-125t125-301-125-301-301-125-301 125-125 301 125 301 301 125z" />
<glyph unicode="&#xe9de;" glyph-name="add_alarm" data-tags="add_alarm, alarm_add" d="M554 448.002v-128h128v-86h-128v-128h-84v128h-128v86h128v128h84zM512-21.998q124 0 211 88t87 212-87 211-211 87-211-87-87-211 87-212 211-88zM512 662.002q160 0 272-113t112-271-112-271-272-113-272 113-112 271 112 271 272 113zM938 588.002l-54-66-196 166 54 64zM336 688.002l-196-164-54 64 196 164z" />
<glyph unicode="&#xe9df;" glyph-name="airplanemode_off" data-tags="airplanemode_off" d="M128 608.002l54 54 672-672-54-54-246 244v-158l86-64v-64l-150 42-148-42v64l84 64v234l-340-106v84l254 160zM554 448.002l342-214v-84l-136 42-334 334v156q0 26 19 45t45 19 45-19 19-45v-234z" />
<glyph unicode="&#xe9e0;" glyph-name="airplanemode_on" data-tags="airplanemode_on, flight, local_airport" d="M896 150.002l-342 106v-234l86-64v-64l-150 42-148-42v64l84 64v234l-340-106v84l340 214v234q0 26 19 45t45 19 45-19 19-45v-234l342-214v-84z" />
<glyph unicode="&#xe9e1;" glyph-name="battery_alert" data-tags="battery_alert" d="M554 234.002v214h-84v-214h84zM554 64.002v86h-84v-86h84zM668 662.002q24 0 41-17t17-41v-654q0-24-17-40t-41-16h-312q-24 0-41 16t-17 40v654q0 24 17 41t41 17h70v84h172v-84h70z" />
<glyph unicode="&#xe9e2;" glyph-name="battery_charging_full" data-tags="battery_charging_full" d="M470-21.998l170 320h-86v236l-170-320h86v-236zM668 662.002q24 0 41-17t17-41v-654q0-24-17-40t-41-16h-312q-24 0-41 16t-17 40v654q0 24 17 41t41 17h70v84h172v-84h70z" />
<glyph unicode="&#xe9e3;" glyph-name="battery_full" data-tags="battery_full, battery_std" d="M668 662.002q24 0 41-17t17-41v-654q0-24-17-40t-41-16h-312q-24 0-41 16t-17 40v654q0 24 17 41t41 17h70v84h172v-84h70z" />
<glyph unicode="&#xe9e4;" glyph-name="battery_unknown" data-tags="battery_unknown" d="M610 290.002q30 30 30 72 0 52-38 90t-90 38-90-38-38-90h64q0 26 18 45t46 19 46-19 18-45-18-44l-40-40q-40-40-40-86h68q0 32 36 68zM552 66.002v82h-80v-82h80zM668 662.002q24 0 41-17t17-41v-654q0-24-17-40t-41-16h-312q-24 0-41 16t-17 40v654q0 24 17 41t41 17h70v84h172v-84h70z" />
<glyph unicode="&#xe9e5;" glyph-name="bluetooth" data-tags="bluetooth" d="M634 136.002l-80 82v-162zM554 584.002v-162l80 82zM756 504.002l-184-184 184-184-244-242h-42v324l-196-196-60 60 238 238-238 238 60 60 196-196v324h42z" />
<glyph unicode="&#xe9e6;" glyph-name="bluetooth_connected" data-tags="bluetooth_connected" d="M810 406.002l86-86-86-86-84 86zM634 136.002l-80 82v-162zM554 584.002v-162l80 82zM756 504.002l-184-184 184-184-244-242h-42v324l-196-196-60 60 238 238-238 238 60 60 196-196v324h42zM298 320.002l-84-86-86 86 86 86z" />
<glyph unicode="&#xe9e7;" glyph-name="bluetooth_disabled" data-tags="bluetooth_disabled" d="M554 56.002l80 80-80 82v-162zM230 662.002l624-624-60-60-98 98-184-182h-42v324l-196-196-60 60 238 238-282 282zM554 584.002v-138l-84 86v214h42l244-242-130-130-60 60 68 70z" />
<glyph unicode="&#xe9e8;" glyph-name="bluetooth_searching" data-tags="bluetooth_searching, bluetooth_audio" d="M550 136.002l-80 82v-162zM470 584.002v-162l80 82zM670 504.002l-184-184 184-184-244-242h-42v324l-196-196-60 60 238 238-238 238 60 60 196-196v324h42zM834 546.002q62-100 62-222 0-120-66-226l-50 50q42 84 42 172t-42 172zM608 320.002l98 98q20-50 20-98 0-50-20-100z" />
<glyph unicode="&#xe9e9;" glyph-name="brightness_auto" data-tags="brightness_auto" d="M610 150.002h82l-138 384h-84l-138-384h82l30 84h136zM854 462.002l140-142-140-142v-200h-200l-142-140-142 140h-200v200l-140 142 140 142v200h200l142 140 142-140h200v-200zM462 292.002l50 156 50-156h-100z" />
<glyph unicode="&#xe9ea;" glyph-name="brightness_high" data-tags="brightness_high, brightness_7" d="M512 490.002q70 0 120-50t50-120-50-120-120-50-120 50-50 120 50 120 120 50zM512 64.002q106 0 181 75t75 181-75 181-181 75-181-75-75-181 75-181 181-75zM854 462.002l140-142-140-142v-200h-200l-142-140-142 140h-200v200l-140 142 140 142v200h200l142 140 142-140h200v-200z" />
<glyph unicode="&#xe9eb;" glyph-name="brightness_low" data-tags="brightness_low, brightness_5" d="M512 64.002q106 0 181 75t75 181-75 181-181 75-181-75-75-181 75-181 181-75zM854 178.002v-200h-200l-142-140-142 140h-200v200l-140 142 140 142v200h200l142 140 142-140h200v-200l140-142z" />
<glyph unicode="&#xe9ec;" glyph-name="brightness_medium" data-tags="brightness_medium, brightness_6" d="M512 64.002q106 0 181 75t75 181-75 181-181 75v-512zM854 178.002v-200h-200l-142-140-142 140h-200v200l-140 142 140 142v200h200l142 140 142-140h200v-200l140-142z" />
<glyph unicode="&#xe9ed;" glyph-name="data_usage" data-tags="data_usage" d="M512 22.002q58 0 126 33t106 79l112-66q-128-174-344-174-176 0-301 125t-125 301q0 166 111 287t273 137v-128q-108-16-182-100t-74-196q0-124 87-211t211-87zM554 744.002q162-16 273-137t111-287q0-96-36-174l-112 66q20 56 20 108 0 112-74 196t-182 100v128z" />
<glyph unicode="&#xe9ee;" glyph-name="developer_mode" data-tags="developer_mode" d="M726 22.002v84h84v-170q0-34-25-60t-59-26h-428q-34 0-59 26t-25 60v170h84v-84h428zM426 184.002l-60-60-196 196 196 196 60-60-134-136zM658 124.002l-60 60 134 136-134 136 60 60 196-196zM298 618.002v-84h-84v170q0 34 25 60t59 26l428-2q34 0 59-25t25-59v-170h-84v84h-428z" />
<glyph unicode="&#xe9ef;" glyph-name="devices" data-tags="devices, phonelink" d="M938 106.002v300h-170v-300h170zM982 490.002q18 0 30-12t12-30v-426q0-18-12-31t-30-13h-256q-18 0-31 13t-13 31v426q0 18 13 30t31 12h256zM170 576.002v-470h428v-128h-598v128h86v470q0 34 25 60t59 26h768v-86h-768z" />
<glyph unicode="&#xe9f0;" glyph-name="dvr" data-tags="dvr" d="M298 320.002v-86h-84v86h84zM298 490.002v-84h-84v84h84zM810 320.002v-86h-468v86h468zM810 490.002v-84h-468v84h468zM896 106.002v512h-768v-512h768zM896 704.002q34 0 60-26t26-60l-2-512q0-34-25-59t-59-25h-214v-86h-340v86h-214q-34 0-60 25t-26 59v512q0 34 26 60t60 26h768z" />
<glyph unicode="&#xe9f1;" glyph-name="gps_fixed" data-tags="gps_fixed, my_location" d="M512 22.002q124 0 211 87t87 211-87 211-211 87-211-87-87-211 87-211 211-87zM894 362.002h88v-84h-88q-14-126-114-226t-226-114v-88h-84v88q-126 14-226 114t-114 226h-88v84h88q14 126 114 226t226 114v88h84v-88q126-14 226-114t114-226zM512 490.002q70 0 120-50t50-120-50-120-120-50-120 50-50 120 50 120 120 50z" />
<glyph unicode="&#xe9f2;" glyph-name="gps_not_fixed" data-tags="gps_not_fixed, location_searching" d="M512 22.002q124 0 211 87t87 211-87 211-211 87-211-87-87-211 87-211 211-87zM894 362.002h88v-84h-88q-14-126-114-226t-226-114v-88h-84v88q-126 14-226 114t-114 226h-88v84h88q14 126 114 226t226 114v88h84v-88q126-14 226-114t114-226z" />
<glyph unicode="&#xe9f3;" glyph-name="gps_off" data-tags="gps_off, location_disabled" d="M694 84.002l-418 418q-26-34-44-87t-18-95q0-124 87-211t211-87q42 0 95 18t87 44zM128 650.002l54 54 714-714-54-54-88 88q-90-74-200-86v-88h-84v88q-126 14-226 114t-114 226h-88v84h88q4 46 30 105t56 95zM894 362.002h88v-84h-88q-10-78-42-136l-64 64q22 54 22 114 0 124-87 211t-211 87q-60 0-114-22l-64 64q62 32 136 42v88h84v-88q126-14 226-114t114-226z" />
<glyph unicode="&#xe9f4;" glyph-name="graphic_eq" data-tags="graphic_eq" d="M810 406.002h86v-172h-86v172zM640 64.002v512h86v-512h-86zM128 234.002v172h86v-172h-86zM470-105.998v852h84v-852h-84zM298 64.002v512h86v-512h-86z" />
<glyph unicode="&#xe9f5;" glyph-name="network_cell" data-tags="network_cell" d="M938-105.998h-852l852 852v-852z" />
<glyph unicode="&#xe9f6;" glyph-name="network_wifi" data-tags="network_wifi" d="M872 366.002l2-2-362-448-362 448 2 2-136 168q242 170 496 170t496-170z" />
<glyph unicode="&#xe9f7;" glyph-name="nfc" data-tags="nfc" d="M768 576.002v-512h-512v512h170v-86h-84v-340h340v340h-128v-96q44-24 44-74 0-34-26-60t-60-26-60 26-26 60q0 50 44 74v96q0 34 25 60t59 26h214zM854-21.998v684h-684v-684h684zM854 746.002q34 0 59-25t25-59v-684q0-34-25-59t-59-25h-684q-34 0-59 25t-25 59v684q0 34 25 59t59 25h684z" />
<glyph unicode="&#xe9f8;" glyph-name="now_wallpaper" data-tags="now_wallpaper" d="M170 278.002v-300h300v-84h-300q-34 0-59 25t-25 59v300h84zM854-21.998v300h84v-300q0-34-25-59t-59-25h-300v84h300zM854 746.002q34 0 59-25t25-59v-300h-84v300h-300v84h300zM726 470.002q0-26-19-45t-45-19-45 19-19 45 19 45 45 19 45-19 19-45zM426 278.002l128-158 86 114 128-170h-512zM170 662.002v-300h-84v300q0 34 25 59t59 25h300v-84h-300z" />
<glyph unicode="&#xe9f9;" glyph-name="now_widgets" data-tags="now_widgets" d="M710 760.002l242-242-242-240h186v-342h-342v342h156l-240 240v-156h-342v342h342v-186zM128-63.998v342h342v-342h-342z" />
<glyph unicode="&#xe9fa;" glyph-name="screen_lock_landscape" data-tags="screen_lock_landscape" d="M460 406.002v-44h104v44q0 20-15 35t-37 15-37-15-15-35zM426 150.002q-18 0-30 12t-12 30v128q0 18 12 30t30 12v44q0 36 25 60t61 24 61-24 25-60v-44q18 0 30-12t12-30v-128q0-18-12-30t-30-12h-172zM810 106.002v428h-596v-428h596zM896 618.002q34 0 60-25t26-59v-428q0-34-26-59t-60-25h-768q-34 0-60 25t-26 59v428q0 34 26 59t60 25h768z" />
<glyph unicode="&#xe9fb;" glyph-name="screen_lock_portrait" data-tags="screen_lock_portrait" d="M726 22.002v596h-428v-596h428zM726 790.002q34 0 59-26t25-60v-768q0-34-25-60t-59-26h-428q-34 0-59 26t-25 60v768q0 34 25 60t59 26h428zM460 406.002v-44h104v44q0 20-15 35t-37 15-37-15-15-35zM426 150.002q-18 0-30 12t-12 30v128q0 18 12 30t30 12v44q0 36 25 60t61 24 61-24 25-60v-44q18 0 30-12t12-30v-128q0-18-12-30t-30-12h-172z" />
<glyph unicode="&#xe9fc;" glyph-name="screen_lock_rotation" data-tags="screen_lock_rotation" d="M716 726.002v-22h146v22q0 30-21 51t-51 21-52-21-22-51zM682 448.002q-18 0-30 12t-12 30v172q0 18 12 30t30 12v22q0 44 32 75t76 31 75-31 31-75v-22q18 0 30-12t12-30v-172q0-18-12-30t-30-12h-214zM362-41.998l56 56 162-162-28-2q-200 0-347 136t-163 334h64q10-106 85-212t171-150zM992 288.002q20-18 20-45t-20-47l-272-270q-18-20-44-20t-46 20l-512 512q-20 20-20 46 0 24 20 44l270 272q18 18 46 18t46-18l104-104-60-60-90 88-242-240 484-484 240 242-94 94 60 60z" />
<glyph unicode="&#xe9fd;" glyph-name="screen_rotation" data-tags="screen_rotation" d="M320-83.998l58 56 162-162-28-2q-200 0-347 136t-163 334h64q10-106 84-212t170-150zM632-71.998l272 272-512 512-272-272zM436 758.002l514-514q20-18 20-44t-20-46l-272-272q-18-20-44-20t-46 20l-514 514q-18 18-18 44 0 28 18 46l272 272q18 18 46 18 26 0 44-18zM704 724.002l-58-56-162 162 28 2q200 0 347-136t163-334h-64q-12 120-80 216t-174 146z" />
</font>
</defs>
</svg>
